<svg width="83" height="117" viewBox="0 0 83 117" fill="none" xmlns="http://www.w3.org/2000/svg">
<ellipse cx="41.5001" cy="16.1111" rx="40.8333" ry="16.1111" fill="#00BAFF"/>
<ellipse cx="41.5001" cy="58.3333" rx="40.8333" ry="16.1111" fill="#00BAFF"/>
<ellipse cx="41.5001" cy="100.555" rx="40.8333" ry="16.1111" fill="#00BAFF"/>
<path d="M5.11157 23.5C33.3588 35.0739 49.2804 34.8614 77.8894 23.5V100.555H5.11157V23.5Z" fill="#00BAFF"/>
<rect x="9" y="16" width="65" height="33" fill="url(#paint0_linear_339_6042)"/>
<ellipse cx="41.5" cy="14" rx="32.5" ry="11" fill="url(#paint1_linear_339_6042)"/>
<ellipse cx="19.3889" cy="13.6108" rx="6.38889" ry="2.5" fill="url(#paint2_radial_339_6042)"/>
<path d="M74.4928 47.0626C74.5341 46.7514 74.555 46.4377 74.555 46.1218C74.555 37.7176 67.8223 29.8551 46.6848 39.3003C42.9794 40.438 38.729 42.7597 34.4114 45.1182C23.7938 50.918 12.7696 56.9398 8.44385 46.1218C8.44385 46.5225 8.47749 46.9195 8.54354 47.3124C8.51004 47.2514 8.4768 47.1898 8.44385 47.1276V97.6867C8.44385 103.505 23.2433 108.222 41.4994 108.222C59.7555 108.222 74.555 103.505 74.555 97.6867V47.1276C74.5342 47.1059 74.5135 47.0842 74.4928 47.0626Z" fill="url(#paint3_linear_339_6042)"/>
<ellipse cx="41.4994" cy="97.6865" rx="33.0556" ry="10.5356" fill="url(#paint4_linear_339_6042)" fill-opacity="0.3"/>
<path d="M8.44478 46.1218C8.44478 54.526 23.2443 61.3389 41.5003 61.3389C59.7564 61.3389 74.5559 54.526 74.5559 46.1218C68.4711 61.3389 49.1325 43.2358 36.315 39.3003C15.1774 29.8551 8.44478 37.7176 8.44478 46.1218Z" fill="url(#paint5_linear_339_6042)"/>
<g style="mix-blend-mode:screen">
<path d="M81.9482 56.5554C79.2046 64.4017 62.1408 70.4443 41.5001 70.4443C20.8594 70.4443 3.79555 64.4017 1.05195 56.5554C0.797906 57.2818 0.666748 58.0237 0.666748 58.7776C0.666748 67.6756 18.9484 74.8888 41.5001 74.8888C64.0518 74.8888 82.3334 67.6756 82.3334 58.7776C82.3334 58.0237 82.2023 57.2818 81.9482 56.5554Z" fill="url(#paint6_linear_339_6042)"/>
</g>
<g style="mix-blend-mode:screen">
<path d="M81.9482 98.6665C79.2046 106.513 62.1408 112.555 41.5001 112.555C20.8594 112.555 3.79555 106.513 1.05195 98.6665C0.797906 99.3929 0.666748 100.135 0.666748 100.889C0.666748 109.787 18.9484 117 41.5001 117C64.0518 117 82.3334 109.787 82.3334 100.889C82.3334 100.135 82.2023 99.3929 81.9482 98.6665Z" fill="url(#paint7_linear_339_6042)"/>
</g>
<g style="mix-blend-mode:screen">
<path d="M81.9482 14.1108C79.2046 21.9572 62.1408 27.9997 41.5001 27.9997C20.8594 27.9997 3.79555 21.9572 1.05195 14.1108C0.797906 14.8372 0.666748 15.5791 0.666748 16.3331C0.666748 25.231 18.9484 32.4442 41.5001 32.4442C64.0518 32.4442 82.3334 25.231 82.3334 16.3331C82.3334 15.5791 82.2023 14.8372 81.9482 14.1108Z" fill="url(#paint8_linear_339_6042)"/>
</g>
<defs>
<linearGradient id="paint0_linear_339_6042" x1="9" y1="40" x2="74" y2="40" gradientUnits="userSpaceOnUse">
<stop stop-color="#56D1FE"/>
<stop offset="0.255" stop-color="white" stop-opacity="0.9"/>
<stop offset="1" stop-color="#68C2E4"/>
</linearGradient>
<linearGradient id="paint1_linear_339_6042" x1="41.5" y1="3" x2="41.5" y2="25" gradientUnits="userSpaceOnUse">
<stop stop-color="#A4E7FF"/>
<stop offset="1" stop-color="#56D1FE"/>
</linearGradient>
<radialGradient id="paint2_radial_339_6042" cx="0" cy="0" r="1" gradientUnits="userSpaceOnUse" gradientTransform="translate(19.3889 15.2775) rotate(90) scale(2.5 6.38889)">
<stop stop-color="#3CAED9"/>
<stop offset="0.81" stop-color="#4AC1ED"/>
</radialGradient>
<linearGradient id="paint3_linear_339_6042" x1="8.44385" y1="48.1695" x2="74.555" y2="48.1695" gradientUnits="userSpaceOnUse">
<stop offset="0.08" stop-color="#E91C64"/>
<stop offset="0.24" stop-color="#FF4C88"/>
<stop offset="0.46" stop-color="#C9204E"/>
<stop offset="1" stop-color="#BE1742"/>
</linearGradient>
<linearGradient id="paint4_linear_339_6042" x1="38.2191" y1="108.222" x2="38.2191" y2="86.6241" gradientUnits="userSpaceOnUse">
<stop stop-color="#CF1A50" stop-opacity="0"/>
<stop offset="1" stop-color="#870026"/>
</linearGradient>
<linearGradient id="paint5_linear_339_6042" x1="36" y1="41.1633" x2="44.4655" y2="67.4015" gradientUnits="userSpaceOnUse">
<stop stop-color="#BE1742"/>
<stop offset="0.77" stop-color="#BE1742" stop-opacity="0.1"/>
<stop offset="1" stop-color="#BE1742" stop-opacity="0.1"/>
</linearGradient>
<linearGradient id="paint6_linear_339_6042" x1="0.666748" y1="65.7221" x2="82.3334" y2="65.7221" gradientUnits="userSpaceOnUse">
<stop offset="0.0934197" stop-color="#418AA5"/>
<stop offset="0.0954698" stop-color="#19353F" stop-opacity="0.2"/>
<stop offset="0.434094" stop-color="#1F424F" stop-opacity="0.5"/>
<stop offset="0.946074" stop-color="#3E829C"/>
</linearGradient>
<linearGradient id="paint7_linear_339_6042" x1="0.666748" y1="107.833" x2="82.3334" y2="107.833" gradientUnits="userSpaceOnUse">
<stop stop-color="#19353F"/>
<stop offset="0.305" stop-color="#357086"/>
<stop offset="1" stop-color="#19353F"/>
</linearGradient>
<linearGradient id="paint8_linear_339_6042" x1="0.666748" y1="23.2775" x2="82.3334" y2="23.2775" gradientUnits="userSpaceOnUse">
<stop stop-color="#19353F"/>
<stop offset="0.305" stop-color="#357086"/>
<stop offset="1" stop-color="#19353F"/>
</linearGradient>
</defs>
</svg>
