<svg width="106" height="113" viewBox="0 0 106 113" fill="none" xmlns="http://www.w3.org/2000/svg">
<g filter="url(#filter0_d_339_4788)">
<ellipse cx="53.014" cy="50.6798" rx="27.5404" ry="30.4394" transform="rotate(48.6904 53.014 50.6798)" fill="url(#paint0_linear_339_4788)"/>
</g>
<ellipse cx="51.0811" cy="47.7809" rx="27.5404" ry="30.4394" transform="rotate(48.6904 51.0811 47.7809)" fill="url(#paint1_linear_339_4788)"/>
<ellipse cx="51.0811" cy="47.7809" rx="27.5404" ry="30.4394" transform="rotate(48.6904 51.0811 47.7809)" fill="url(#paint2_linear_339_4788)"/>
<ellipse cx="51.0811" cy="47.7809" rx="27.5404" ry="30.4394" transform="rotate(48.6904 51.0811 47.7809)" fill="url(#paint3_linear_339_4788)"/>
<ellipse cx="51.0812" cy="47.7811" rx="24.8112" ry="27.4229" transform="rotate(48.6904 51.0812 47.7811)" fill="url(#paint4_linear_339_4788)"/>
<g filter="url(#filter1_d_339_4788)">
<path d="M51.1198 49.5254C49.5224 47.9303 46.928 47.9386 45.325 49.5439L31.1496 63.7398H31.1746L21.3543 73.5601L21.3543 71.316C21.3543 70.6701 21.6663 70.0639 22.1919 69.6885L28.9924 64.831C32.2658 61.5576 29.7174 58.7536 27.9012 59.3753L18.0809 64.831C16.4543 65.3877 14.9527 67.3947 14.2562 68.8019C12.6252 73.5602 11.4453 77.143 10.1135 81.1558C9.78693 82.1399 9.73992 85.4223 10.1135 86.3048C10.194 88.6149 10.07 89.3 6.94141 92.1629L25.2593 110.454C26.9444 108.68 28.8423 107.482 30.886 106.191C32.4779 105.186 34.1583 104.125 35.8955 102.693C42.3583 97.3632 45.4868 93.946 51.0529 87.5135C52.6559 85.9082 53.5038 82.7933 51.9064 81.1982C50.6379 79.9315 49.496 80.1855 48.4823 80.411C48.2195 80.4694 47.9654 80.526 47.7198 80.5536C47.7437 80.5261 47.7679 80.4984 47.7923 80.4703C49.2025 78.8506 51.438 76.283 49.7241 73.3711C48.3924 71.1084 46.2254 72.39 44.6459 73.3241C44.1576 73.6129 43.7254 73.8686 43.3914 73.9759L43.9954 73.3711C45.5984 71.7658 47.5418 69.1955 45.325 67.0133C43.51 65.3849 41.5361 66.0336 40.1311 66.4954C40.0393 66.5255 39.9499 66.5549 39.8632 66.5828L51.1096 55.3202C52.7126 53.7149 52.7172 51.1205 51.1198 49.5254Z" fill="url(#paint5_linear_339_4788)"/>
<path fill-rule="evenodd" clip-rule="evenodd" d="M43.2174 44.8652C42.216 45.3051 41.0477 44.8499 40.6079 43.8486L37.4113 36.5712C36.9715 35.5699 37.4266 34.4016 38.428 33.9618C39.4293 33.5219 40.5976 33.9771 41.0374 34.9784L44.234 42.2558C44.6739 43.2571 44.2187 44.4254 43.2174 44.8652Z" fill="#2697D1"/>
<path fill-rule="evenodd" clip-rule="evenodd" d="M50.5674 43.0622C49.4991 42.828 48.8229 41.7722 49.0571 40.7039L50.7592 32.9398C50.9934 31.8715 52.0493 31.1953 53.1176 31.4295C54.1859 31.6637 54.8621 32.7196 54.6279 33.7879L52.9258 41.552C52.6916 42.6203 51.6357 43.2964 50.5674 43.0622Z" fill="#2697D1"/>
<path fill-rule="evenodd" clip-rule="evenodd" d="M56.0769 47.1229C55.5815 46.1479 55.9704 44.9558 56.9454 44.4605L64.4818 40.6316C65.4568 40.1363 66.6488 40.5251 67.1442 41.5001C67.6396 42.4752 67.2507 43.6672 66.2757 44.1626L58.7393 47.9914C57.7643 48.4868 56.5723 48.0979 56.0769 47.1229Z" fill="#2697D1"/>
<path fill-rule="evenodd" clip-rule="evenodd" d="M57.3623 56.991C57.3623 55.8973 58.2489 55.0107 59.3426 55.0107H65.9434C67.0371 55.0107 67.9237 55.8973 67.9237 56.991C67.9237 58.0847 67.0371 58.9713 65.9434 58.9713H59.3426C58.2489 58.9713 57.3623 58.0847 57.3623 56.991Z" fill="#2697D1"/>
</g>
<defs>
<filter id="filter0_d_339_4788" x="0.801514" y="0.840332" width="104.425" height="103.679" filterUnits="userSpaceOnUse" color-interpolation-filters="sRGB">
<feFlood flood-opacity="0" result="BackgroundImageFix"/>
<feColorMatrix in="SourceAlpha" type="matrix" values="0 0 0 0 0 0 0 0 0 0 0 0 0 0 0 0 0 0 127 0" result="hardAlpha"/>
<feOffset dy="2"/>
<feGaussianBlur stdDeviation="11.5"/>
<feComposite in2="hardAlpha" operator="out"/>
<feColorMatrix type="matrix" values="0 0 0 0 0.164706 0 0 0 0 0.670588 0 0 0 0 0.933333 0 0 0 0.5 0"/>
<feBlend mode="normal" in2="BackgroundImageFix" result="effect1_dropShadow_339_4788"/>
<feBlend mode="normal" in="SourceGraphic" in2="effect1_dropShadow_339_4788" result="shape"/>
</filter>
<filter id="filter1_d_339_4788" x="5.94141" y="31.3833" width="62.9822" height="81.0708" filterUnits="userSpaceOnUse" color-interpolation-filters="sRGB">
<feFlood flood-opacity="0" result="BackgroundImageFix"/>
<feColorMatrix in="SourceAlpha" type="matrix" values="0 0 0 0 0 0 0 0 0 0 0 0 0 0 0 0 0 0 127 0" result="hardAlpha"/>
<feOffset dy="1"/>
<feGaussianBlur stdDeviation="0.5"/>
<feComposite in2="hardAlpha" operator="out"/>
<feColorMatrix type="matrix" values="0 0 0 0 0 0 0 0 0 0 0 0 0 0 0 0 0 0 0.25 0"/>
<feBlend mode="normal" in2="BackgroundImageFix" result="effect1_dropShadow_339_4788"/>
<feBlend mode="normal" in="SourceGraphic" in2="effect1_dropShadow_339_4788" result="shape"/>
</filter>
<linearGradient id="paint0_linear_339_4788" x1="57.4357" y1="23.6906" x2="80.5544" y2="50.6798" gradientUnits="userSpaceOnUse">
<stop stop-color="#D99748"/>
<stop offset="1" stop-color="#735026"/>
</linearGradient>
<linearGradient id="paint1_linear_339_4788" x1="33.1216" y1="29.4248" x2="73.5611" y2="56.6017" gradientUnits="userSpaceOnUse">
<stop stop-color="#D99748"/>
<stop offset="1" stop-color="#ECB574"/>
</linearGradient>
<linearGradient id="paint2_linear_339_4788" x1="33.1216" y1="29.4248" x2="73.5611" y2="56.6017" gradientUnits="userSpaceOnUse">
<stop stop-color="#D99748"/>
<stop offset="1" stop-color="#ECB574"/>
</linearGradient>
<linearGradient id="paint3_linear_339_4788" x1="33.1216" y1="29.4248" x2="73.5611" y2="56.6017" gradientUnits="userSpaceOnUse">
<stop stop-color="#D99748"/>
<stop offset="1" stop-color="#ECB574"/>
</linearGradient>
<linearGradient id="paint4_linear_339_4788" x1="47.3755" y1="16.8654" x2="34.6279" y2="68.699" gradientUnits="userSpaceOnUse">
<stop stop-color="#D99748"/>
<stop offset="1" stop-color="#ECB574"/>
</linearGradient>
<linearGradient id="paint5_linear_339_4788" x1="56.137" y1="54.5354" x2="12.7609" y2="97.974" gradientUnits="userSpaceOnUse">
<stop offset="0.38" stop-color="#28A2E1"/>
<stop offset="1" stop-color="#268DC2"/>
</linearGradient>
</defs>
</svg>
