<svg xmlns="http://www.w3.org/2000/svg" width="49" height="50" viewBox="0 0 49 50" fill="none">
  <path fill-rule="evenodd" clip-rule="evenodd" d="M11.2269 0.676935C11.4558 0.522441 11.7665 0.582742 11.921 0.811623L17.5303 9.1216C17.6848 9.35048 17.6245 9.66127 17.3956 9.81577C17.1667 9.97026 16.8559 9.90996 16.7014 9.68108L11.0922 1.3711C10.9377 1.14222 10.998 0.831429 11.2269 0.676935Z" fill="url(#paint0_radial_439_9953)"/>
  <path fill-rule="evenodd" clip-rule="evenodd" d="M24.8458 0.710788C25.1219 0.714971 25.3423 0.942195 25.3381 1.21831L25.1304 14.9298C25.1262 15.2059 24.899 15.4263 24.6229 15.4221C24.3468 15.418 24.1263 15.1907 24.1305 14.9146L24.3383 1.20316C24.3424 0.927045 24.5697 0.706604 24.8458 0.710788Z" fill="url(#paint1_radial_439_9953)"/>
  <path fill-rule="evenodd" clip-rule="evenodd" d="M36.6947 0.878972C36.9337 1.01733 37.0152 1.32322 36.8769 1.5622L32.3064 9.45669C32.168 9.69567 31.8621 9.77724 31.6232 9.63888C31.3842 9.50053 31.3026 9.19463 31.441 8.95565L36.0115 1.06117C36.1498 0.822186 36.4557 0.740615 36.6947 0.878972Z" fill="url(#paint2_radial_439_9953)"/>
  <path fill-rule="evenodd" clip-rule="evenodd" d="M31.0989 10.6615C31.3319 10.8098 31.4006 11.1188 31.2523 11.3518L29.7981 13.637C29.6498 13.87 29.3408 13.9387 29.1078 13.7904C28.8749 13.6422 28.8062 13.3331 28.9544 13.1002L30.4087 10.8149C30.5569 10.582 30.866 10.5133 31.0989 10.6615Z" fill="url(#paint3_radial_439_9953)"/>
  <path fill-rule="evenodd" clip-rule="evenodd" d="M43.3562 5.67975C43.533 5.89189 43.5043 6.20717 43.2922 6.38395L33.3202 14.6939C33.1081 14.8707 32.7928 14.8421 32.616 14.6299C32.4392 14.4178 32.4679 14.1025 32.68 13.9257L42.652 5.61573C42.8641 5.43895 43.1794 5.46761 43.3562 5.67975Z" fill="url(#paint4_radial_439_9953)"/>
  <path fill-rule="evenodd" clip-rule="evenodd" d="M17.8893 10.4385C18.1223 10.2902 18.4313 10.3589 18.5796 10.5918L20.0338 12.8771C20.1821 13.1101 20.1134 13.4191 19.8804 13.5674C19.6475 13.7156 19.3384 13.6469 19.1902 13.414L17.7359 11.1287C17.5877 10.8958 17.6563 10.5867 17.8893 10.4385Z" fill="url(#paint5_radial_439_9953)"/>
  <path fill-rule="evenodd" clip-rule="evenodd" d="M3.0669 11.5945C3.18968 11.3471 3.48972 11.2461 3.73707 11.3689L20.2224 19.552C20.4698 19.6748 20.5707 19.9748 20.448 20.2222C20.3252 20.4695 20.0251 20.5705 19.7778 20.4477L3.29245 12.2646C3.0451 12.1419 2.94412 11.8418 3.0669 11.5945Z" fill="url(#paint6_radial_439_9953)"/>
  <path fill-rule="evenodd" clip-rule="evenodd" d="M0.51261 17.8376C0.573971 17.5683 0.841976 17.3998 1.11121 17.4612L10.1112 19.5123C10.3805 19.5737 10.549 19.8417 10.4876 20.1109C10.4262 20.3802 10.1582 20.5487 9.889 20.4873L0.889005 18.4362C0.619766 18.3748 0.451249 18.1068 0.51261 17.8376Z" fill="url(#paint7_radial_439_9953)"/>
  <path fill-rule="evenodd" clip-rule="evenodd" d="M31.9837 18.4311C31.8871 18.1724 32.0185 17.8843 32.2772 17.7878L47.8585 11.9708C48.1172 11.8742 48.4052 12.0056 48.5018 12.2643C48.5983 12.523 48.4669 12.811 48.2082 12.9076L32.627 18.7246C32.3683 18.8212 32.0803 18.6898 31.9837 18.4311Z" fill="url(#paint8_radial_439_9953)"/>
  <path fill-rule="evenodd" clip-rule="evenodd" d="M38.4493 44.9501C38.2205 45.1046 37.9097 45.0443 37.7552 44.8155L32.1459 36.5055C31.9915 36.2766 32.0518 35.9658 32.2806 35.8113C32.5095 35.6568 32.8203 35.7171 32.9748 35.946L38.584 44.256C38.7385 44.4849 38.6782 44.7957 38.4493 44.9501Z" fill="url(#paint9_radial_439_9953)"/>
  <path fill-rule="evenodd" clip-rule="evenodd" d="M31.6337 46.2041C31.3685 46.2811 31.0911 46.1285 31.0141 45.8633L29.1444 39.4231C29.0674 39.1579 29.22 38.8805 29.4852 38.8035C29.7504 38.7265 30.0278 38.8791 30.1047 39.1443L31.9745 45.5845C32.0515 45.8497 31.8989 46.1271 31.6337 46.2041Z" fill="url(#paint10_radial_439_9953)"/>
  <path fill-rule="evenodd" clip-rule="evenodd" d="M24.2073 49.4868C23.9312 49.4826 23.7108 49.2554 23.7149 48.9793L23.9227 35.2678C23.9269 34.9917 24.1541 34.7712 24.4302 34.7754C24.7063 34.7796 24.9268 35.0068 24.9226 35.2829L24.7148 48.9944C24.7106 49.2705 24.4834 49.491 24.2073 49.4868Z" fill="url(#paint11_radial_439_9953)"/>
  <path fill-rule="evenodd" clip-rule="evenodd" d="M12.9815 44.7481C12.7426 44.6098 12.661 44.3039 12.7993 44.0649L17.3698 36.1704C17.5082 35.9314 17.8141 35.8499 18.0531 35.9882C18.2921 36.1266 18.3736 36.4325 18.2353 36.6714L13.6648 44.5659C13.5264 44.8049 13.2205 44.8865 12.9815 44.7481Z" fill="url(#paint12_radial_439_9953)"/>
  <path fill-rule="evenodd" clip-rule="evenodd" d="M42.5008 38.2179C42.2999 38.4073 41.9834 38.3979 41.794 38.197L34.2742 30.22C34.0848 30.0191 34.0941 29.7026 34.2951 29.5132C34.496 29.3238 34.8125 29.3331 35.0019 29.5341L42.5216 37.5111C42.7111 37.712 42.7017 38.0284 42.5008 38.2179Z" fill="url(#paint13_radial_439_9953)"/>
  <path fill-rule="evenodd" clip-rule="evenodd" d="M30.5405 33.1111C30.3075 33.2594 29.9985 33.1907 29.8502 32.9577L28.396 30.6725C28.2477 30.4395 28.3164 30.1305 28.5493 29.9822C28.7823 29.834 29.0914 29.9027 29.2396 30.1356L30.6939 32.4209C30.8421 32.6538 30.7734 32.9629 30.5405 33.1111Z" fill="url(#paint14_radial_439_9953)"/>
  <path fill-rule="evenodd" clip-rule="evenodd" d="M46.7348 24.8268C46.7129 25.1021 46.472 25.3075 46.1967 25.2856L37.0557 24.5585C36.7805 24.5366 36.5751 24.2957 36.597 24.0204C36.6189 23.7451 36.8598 23.5397 37.135 23.5616L46.276 24.2887C46.5513 24.3106 46.7567 24.5515 46.7348 24.8268Z" fill="url(#paint15_radial_439_9953)"/>
  <path fill-rule="evenodd" clip-rule="evenodd" d="M19.5279 27.1227C19.665 27.3625 19.5817 27.6679 19.342 27.805L4.24827 36.4339C4.00853 36.571 3.70309 36.4877 3.56604 36.248C3.42899 36.0083 3.51222 35.7028 3.75196 35.5658L18.8457 26.9368C19.0854 26.7998 19.3909 26.883 19.5279 27.1227Z" fill="url(#paint16_radial_439_9953)"/>
  <path fill-rule="evenodd" clip-rule="evenodd" d="M12.8161 24.6689C12.7667 24.3972 12.9469 24.1369 13.2186 24.0875L15.5039 23.672C15.7756 23.6226 16.0359 23.8028 16.0853 24.0745C16.1347 24.3462 15.9545 24.6065 15.6828 24.6558L13.3975 25.0713C13.1258 25.1207 12.8655 24.9405 12.8161 24.6689Z" fill="url(#paint17_radial_439_9953)"/>
  <path fill-rule="evenodd" clip-rule="evenodd" d="M1.28938 27.2825C1.23072 27.0127 1.40192 26.7464 1.67176 26.6877L11.2282 24.6102C11.4981 24.5515 11.7644 24.7227 11.823 24.9926C11.8817 25.2624 11.7105 25.5287 11.4407 25.5874L1.88419 27.6649C1.61435 27.7235 1.34804 27.5523 1.28938 27.2825Z" fill="url(#paint18_radial_439_9953)"/>
  <path fill-rule="evenodd" clip-rule="evenodd" d="M38.9998 18.687C39.6572 18.599 40.292 18.3025 40.7972 17.7973C41.3025 17.292 41.5991 16.657 41.687 15.9995C41.7749 16.657 42.0715 17.2919 42.5768 17.7972C43.082 18.3024 43.7168 18.599 44.3742 18.6869C43.7168 18.7749 43.082 19.0715 42.5768 19.5767C42.0715 20.0819 41.7749 20.7168 41.687 21.3742C41.5991 20.7168 41.3025 20.0819 40.7973 19.5767C40.2921 19.0715 39.6572 18.7749 38.9998 18.687Z" fill="#ED1C67"/>
  <path fill-rule="evenodd" clip-rule="evenodd" d="M26.2924 3.68698C26.9497 3.59902 27.5845 3.30245 28.0897 2.79726C28.595 2.29197 28.8916 1.65702 28.9795 0.999512C29.0674 1.657 29.364 2.29193 29.8693 2.7972C30.3745 3.3024 31.0093 3.59898 31.6667 3.68693C31.0093 3.77488 30.3745 4.07146 29.8693 4.57666C29.364 5.0819 29.0675 5.71678 28.9795 6.37422C28.8916 5.71679 28.595 5.08194 28.0898 4.57671C27.5846 4.07151 26.9497 3.77493 26.2924 3.68698Z" fill="#ED1C67"/>
  <path fill-rule="evenodd" clip-rule="evenodd" d="M9.00034 9.68699C9.65772 9.59903 10.2925 9.30245 10.7977 8.79726C11.303 8.29197 11.5996 7.65702 11.6875 6.99951C11.7754 7.657 12.072 8.29193 12.5773 8.7972C13.0825 9.30243 13.7174 9.59901 14.3748 9.68694C13.7174 9.77489 13.0826 10.0715 12.5773 10.5767C12.0721 11.0819 11.7755 11.7168 11.6876 12.3742C11.5997 11.7168 11.3031 11.082 10.7978 10.5767C10.2926 10.0715 9.65776 9.77492 9.00034 9.68699Z" fill="#ED1C67"/>
  <path fill-rule="evenodd" clip-rule="evenodd" d="M17.9553 32.772C17.2979 32.8599 16.663 33.1565 16.1578 33.6617C15.6526 34.167 15.356 34.802 15.2681 35.4595C15.1802 34.802 14.8836 34.1671 14.3783 33.6618C13.8731 33.1566 13.2382 32.86 12.5808 32.772C13.2382 32.6841 13.873 32.3875 14.3782 31.8823C14.8835 31.3771 15.1801 30.7422 15.268 30.0847C15.3559 30.7421 15.6525 31.377 16.1577 31.8822C16.663 32.3875 17.2978 32.6841 17.9553 32.772Z" fill="#ED1C67"/>
  <path fill-rule="evenodd" clip-rule="evenodd" d="M31.0706 35.0842C30.4132 35.1722 29.7783 35.4688 29.2731 35.974C28.7678 36.4793 28.4712 37.1142 28.3833 37.7717C28.2954 37.1142 27.9988 36.4793 27.4935 35.974C26.9883 35.4688 26.3535 35.1722 25.696 35.0843C26.3534 34.9963 26.9883 34.6998 27.4935 34.1946C27.9989 33.6892 28.2955 33.054 28.3833 32.3964C28.4712 33.054 28.7678 33.6891 29.2732 34.1945C29.7784 34.6997 30.4132 34.9963 31.0706 35.0842Z" fill="#ED1C67"/>
  <path fill-rule="evenodd" clip-rule="evenodd" d="M33.374 24.6871C32.7166 24.775 32.0817 25.0716 31.5765 25.5768C31.0714 26.0819 30.7748 26.7166 30.6868 27.3738C30.5988 26.7165 30.3023 26.0818 29.7971 25.5767C29.292 25.0716 28.6574 24.775 28.0001 24.687C28.6574 24.599 29.292 24.3024 29.7971 23.7973C30.3023 23.2921 30.5989 22.6574 30.6869 22C30.7748 22.6574 31.0714 23.2921 31.5766 23.7973C32.0818 24.3025 32.7166 24.5991 33.374 24.6871Z" fill="#ED1C67"/>
  <defs>
    <radialGradient id="paint0_radial_439_9953" cx="0" cy="0" r="1" gradientUnits="userSpaceOnUse" gradientTransform="translate(24.5167 25.0391) rotate(88.9537) scale(26.4652 25.9986)">
      <stop stop-color="#00BAFF"/>
      <stop offset="0.735" stop-color="#00A6E4"/>
      <stop offset="1" stop-color="#033446"/>
    </radialGradient>
    <radialGradient id="paint1_radial_439_9953" cx="0" cy="0" r="1" gradientUnits="userSpaceOnUse" gradientTransform="translate(24.5167 25.0391) rotate(88.9537) scale(26.4652 25.9986)">
      <stop stop-color="#00BAFF"/>
      <stop offset="0.735" stop-color="#00A6E4"/>
      <stop offset="1" stop-color="#033446"/>
    </radialGradient>
    <radialGradient id="paint2_radial_439_9953" cx="0" cy="0" r="1" gradientUnits="userSpaceOnUse" gradientTransform="translate(24.5167 25.0391) rotate(88.9537) scale(26.4652 25.9986)">
      <stop stop-color="#00BAFF"/>
      <stop offset="0.735" stop-color="#00A6E4"/>
      <stop offset="1" stop-color="#033446"/>
    </radialGradient>
    <radialGradient id="paint3_radial_439_9953" cx="0" cy="0" r="1" gradientUnits="userSpaceOnUse" gradientTransform="translate(24.5167 25.0391) rotate(88.9537) scale(26.4652 25.9986)">
      <stop stop-color="#00BAFF"/>
      <stop offset="0.735" stop-color="#00A6E4"/>
      <stop offset="1" stop-color="#033446"/>
    </radialGradient>
    <radialGradient id="paint4_radial_439_9953" cx="0" cy="0" r="1" gradientUnits="userSpaceOnUse" gradientTransform="translate(24.5167 25.0391) rotate(88.9537) scale(26.4652 25.9986)">
      <stop stop-color="#00BAFF"/>
      <stop offset="0.735" stop-color="#00A6E4"/>
      <stop offset="1" stop-color="#033446"/>
    </radialGradient>
    <radialGradient id="paint5_radial_439_9953" cx="0" cy="0" r="1" gradientUnits="userSpaceOnUse" gradientTransform="translate(24.5167 25.0391) rotate(88.9537) scale(26.4652 25.9986)">
      <stop stop-color="#00BAFF"/>
      <stop offset="0.735" stop-color="#00A6E4"/>
      <stop offset="1" stop-color="#033446"/>
    </radialGradient>
    <radialGradient id="paint6_radial_439_9953" cx="0" cy="0" r="1" gradientUnits="userSpaceOnUse" gradientTransform="translate(24.5167 25.0391) rotate(88.9537) scale(26.4652 25.9986)">
      <stop stop-color="#00BAFF"/>
      <stop offset="0.735" stop-color="#00A6E4"/>
      <stop offset="1" stop-color="#033446"/>
    </radialGradient>
    <radialGradient id="paint7_radial_439_9953" cx="0" cy="0" r="1" gradientUnits="userSpaceOnUse" gradientTransform="translate(24.5167 25.0391) rotate(88.9537) scale(26.4652 25.9986)">
      <stop stop-color="#00BAFF"/>
      <stop offset="0.735" stop-color="#00A6E4"/>
      <stop offset="1" stop-color="#033446"/>
    </radialGradient>
    <radialGradient id="paint8_radial_439_9953" cx="0" cy="0" r="1" gradientUnits="userSpaceOnUse" gradientTransform="translate(24.5167 25.0391) rotate(88.9537) scale(26.4652 25.9986)">
      <stop stop-color="#00BAFF"/>
      <stop offset="0.735" stop-color="#00A6E4"/>
      <stop offset="1" stop-color="#033446"/>
    </radialGradient>
    <radialGradient id="paint9_radial_439_9953" cx="0" cy="0" r="1" gradientUnits="userSpaceOnUse" gradientTransform="translate(24.5167 25.0391) rotate(88.9537) scale(26.4652 25.9986)">
      <stop stop-color="#00BAFF"/>
      <stop offset="0.735" stop-color="#00A6E4"/>
      <stop offset="1" stop-color="#033446"/>
    </radialGradient>
    <radialGradient id="paint10_radial_439_9953" cx="0" cy="0" r="1" gradientUnits="userSpaceOnUse" gradientTransform="translate(24.5167 25.0391) rotate(88.9537) scale(26.4652 25.9986)">
      <stop stop-color="#00BAFF"/>
      <stop offset="0.735" stop-color="#00A6E4"/>
      <stop offset="1" stop-color="#033446"/>
    </radialGradient>
    <radialGradient id="paint11_radial_439_9953" cx="0" cy="0" r="1" gradientUnits="userSpaceOnUse" gradientTransform="translate(24.5167 25.0391) rotate(88.9537) scale(26.4652 25.9986)">
      <stop stop-color="#00BAFF"/>
      <stop offset="0.735" stop-color="#00A6E4"/>
      <stop offset="1" stop-color="#033446"/>
    </radialGradient>
    <radialGradient id="paint12_radial_439_9953" cx="0" cy="0" r="1" gradientUnits="userSpaceOnUse" gradientTransform="translate(24.5167 25.0391) rotate(88.9537) scale(26.4652 25.9986)">
      <stop stop-color="#00BAFF"/>
      <stop offset="0.735" stop-color="#00A6E4"/>
      <stop offset="1" stop-color="#033446"/>
    </radialGradient>
    <radialGradient id="paint13_radial_439_9953" cx="0" cy="0" r="1" gradientUnits="userSpaceOnUse" gradientTransform="translate(24.5167 25.0391) rotate(88.9537) scale(26.4652 25.9986)">
      <stop stop-color="#00BAFF"/>
      <stop offset="0.735" stop-color="#00A6E4"/>
      <stop offset="1" stop-color="#033446"/>
    </radialGradient>
    <radialGradient id="paint14_radial_439_9953" cx="0" cy="0" r="1" gradientUnits="userSpaceOnUse" gradientTransform="translate(24.5167 25.0391) rotate(88.9537) scale(26.4652 25.9986)">
      <stop stop-color="#00BAFF"/>
      <stop offset="0.735" stop-color="#00A6E4"/>
      <stop offset="1" stop-color="#033446"/>
    </radialGradient>
    <radialGradient id="paint15_radial_439_9953" cx="0" cy="0" r="1" gradientUnits="userSpaceOnUse" gradientTransform="translate(24.5167 25.0391) rotate(88.9537) scale(26.4652 25.9986)">
      <stop stop-color="#00BAFF"/>
      <stop offset="0.735" stop-color="#00A6E4"/>
      <stop offset="1" stop-color="#033446"/>
    </radialGradient>
    <radialGradient id="paint16_radial_439_9953" cx="0" cy="0" r="1" gradientUnits="userSpaceOnUse" gradientTransform="translate(24.5167 25.0391) rotate(88.9537) scale(26.4652 25.9986)">
      <stop stop-color="#00BAFF"/>
      <stop offset="0.735" stop-color="#00A6E4"/>
      <stop offset="1" stop-color="#033446"/>
    </radialGradient>
    <radialGradient id="paint17_radial_439_9953" cx="0" cy="0" r="1" gradientUnits="userSpaceOnUse" gradientTransform="translate(24.5167 25.0391) rotate(88.9537) scale(26.4652 25.9986)">
      <stop stop-color="#00BAFF"/>
      <stop offset="0.735" stop-color="#00A6E4"/>
      <stop offset="1" stop-color="#033446"/>
    </radialGradient>
    <radialGradient id="paint18_radial_439_9953" cx="0" cy="0" r="1" gradientUnits="userSpaceOnUse" gradientTransform="translate(24.5167 25.0391) rotate(88.9537) scale(26.4652 25.9986)">
      <stop stop-color="#00BAFF"/>
      <stop offset="0.735" stop-color="#00A6E4"/>
      <stop offset="1" stop-color="#033446"/>
    </radialGradient>
  </defs>
</svg>