<svg width="207" height="20" viewBox="0 0 207 20" fill="none" xmlns="http://www.w3.org/2000/svg">
<path d="M5.01984 15L0.459844 0.94H3.13984L6.51984 11.76H5.61984L8.93984 0.94H10.9598L14.2798 11.76H13.3598L16.7598 0.94H19.4398L14.8598 15H12.8398L9.49984 4.2H10.3798L7.05984 15H5.01984ZM23.4955 15.2C22.4821 15.2 21.5821 14.9867 20.7955 14.56C20.0088 14.12 19.3821 13.52 18.9155 12.76C18.4621 12 18.2355 11.1333 18.2355 10.16C18.2355 9.2 18.4555 8.34667 18.8955 7.6C19.3488 6.84 19.9621 6.24 20.7355 5.8C21.5088 5.34667 22.3688 5.12 23.3155 5.12C24.2488 5.12 25.0688 5.33333 25.7755 5.76C26.4955 6.17333 27.0555 6.74667 27.4555 7.48C27.8688 8.2 28.0755 9.02 28.0755 9.94C28.0755 10.1133 28.0621 10.2933 28.0355 10.48C28.0221 10.6533 27.9888 10.8533 27.9355 11.08L19.8155 11.1V9.14L26.7155 9.12L25.6555 9.94C25.6288 9.36667 25.5221 8.88667 25.3355 8.5C25.1621 8.11333 24.9021 7.82 24.5555 7.62C24.2221 7.40667 23.8088 7.3 23.3155 7.3C22.7955 7.3 22.3421 7.42 21.9555 7.66C21.5688 7.88667 21.2688 8.21333 21.0555 8.64C20.8555 9.05333 20.7555 9.54667 20.7555 10.12C20.7555 10.7067 20.8621 11.22 21.0755 11.66C21.3021 12.0867 21.6221 12.42 22.0355 12.66C22.4488 12.8867 22.9288 13 23.4755 13C23.9688 13 24.4155 12.92 24.8155 12.76C25.2155 12.5867 25.5621 12.3333 25.8555 12L27.3955 13.54C26.9288 14.0867 26.3555 14.5 25.6755 14.78C25.0088 15.06 24.2821 15.2 23.4955 15.2ZM31.962 15V5.34H34.582V15H31.962ZM38.262 15V9.3C38.262 8.74 38.082 8.30667 37.722 8C37.3754 7.68 36.942 7.52 36.422 7.52C36.0754 7.52 35.762 7.59333 35.482 7.74C35.202 7.87333 34.982 8.07333 34.822 8.34C34.662 8.60667 34.582 8.92667 34.582 9.3L33.562 8.8C33.562 8.05333 33.722 7.40667 34.042 6.86C34.3754 6.31333 34.822 5.89333 35.382 5.6C35.942 5.29333 36.5754 5.14 37.282 5.14C37.9487 5.14 38.5554 5.29333 39.102 5.6C39.6487 5.89333 40.082 6.31333 40.402 6.86C40.722 7.39333 40.882 8.04 40.882 8.8V15H38.262ZM44.562 15V9.3C44.562 8.74 44.382 8.30667 44.022 8C43.6754 7.68 43.242 7.52 42.722 7.52C42.3887 7.52 42.0754 7.59333 41.782 7.74C41.502 7.87333 41.282 8.07333 41.122 8.34C40.962 8.60667 40.882 8.92667 40.882 9.3L39.382 8.94C39.4354 8.16667 39.642 7.5 40.002 6.94C40.362 6.36667 40.8354 5.92667 41.422 5.62C42.0087 5.3 42.662 5.14 43.382 5.14C44.102 5.14 44.7487 5.29333 45.322 5.6C45.8954 5.89333 46.3487 6.32 46.682 6.88C47.0154 7.44 47.182 8.10667 47.182 8.88V15H44.562ZM52.5258 15.2C51.6458 15.2 50.8524 14.98 50.1458 14.54C49.4391 14.1 48.8858 13.5 48.4858 12.74C48.0858 11.98 47.8858 11.1267 47.8858 10.18C47.8858 9.22 48.0858 8.36 48.4858 7.6C48.8858 6.84 49.4391 6.24 50.1458 5.8C50.8524 5.36 51.6458 5.14 52.5258 5.14C53.2191 5.14 53.8391 5.28 54.3858 5.56C54.9324 5.84 55.3658 6.23333 55.6858 6.74C56.0191 7.23333 56.1991 7.79333 56.2258 8.42V11.9C56.1991 12.54 56.0191 13.1067 55.6858 13.6C55.3658 14.0933 54.9324 14.4867 54.3858 14.78C53.8391 15.06 53.2191 15.2 52.5258 15.2ZM53.0058 12.78C53.7391 12.78 54.3324 12.54 54.7858 12.06C55.2391 11.5667 55.4658 10.9333 55.4658 10.16C55.4658 9.65333 55.3591 9.20667 55.1458 8.82C54.9458 8.42 54.6591 8.11333 54.2858 7.9C53.9258 7.67333 53.4991 7.56 53.0058 7.56C52.5258 7.56 52.0991 7.67333 51.7258 7.9C51.3658 8.11333 51.0791 8.42 50.8658 8.82C50.6658 9.20667 50.5658 9.65333 50.5658 10.16C50.5658 10.68 50.6658 11.14 50.8658 11.54C51.0791 11.9267 51.3658 12.2333 51.7258 12.46C52.0991 12.6733 52.5258 12.78 53.0058 12.78ZM55.3258 15V12.4L55.7458 10.04L55.3258 7.72V5.34H57.9258V15H55.3258ZM65.5836 15L61.8436 10.02L65.5636 5.34H68.5836L64.2236 10.62L64.3236 9.34L68.7836 15H65.5836ZM59.4236 15V0.539999H62.0436V15H59.4236ZM73.3408 15.2C72.3275 15.2 71.4275 14.9867 70.6408 14.56C69.8541 14.12 69.2275 13.52 68.7608 12.76C68.3075 12 68.0808 11.1333 68.0808 10.16C68.0808 9.2 68.3008 8.34667 68.7408 7.6C69.1941 6.84 69.8075 6.24 70.5808 5.8C71.3541 5.34667 72.2141 5.12 73.1608 5.12C74.0941 5.12 74.9141 5.33333 75.6208 5.76C76.3408 6.17333 76.9008 6.74667 77.3008 7.48C77.7141 8.2 77.9208 9.02 77.9208 9.94C77.9208 10.1133 77.9075 10.2933 77.8808 10.48C77.8675 10.6533 77.8341 10.8533 77.7808 11.08L69.6608 11.1V9.14L76.5608 9.12L75.5008 9.94C75.4741 9.36667 75.3675 8.88667 75.1808 8.5C75.0075 8.11333 74.7475 7.82 74.4008 7.62C74.0675 7.40667 73.6541 7.3 73.1608 7.3C72.6408 7.3 72.1875 7.42 71.8008 7.66C71.4141 7.88667 71.1141 8.21333 70.9008 8.64C70.7008 9.05333 70.6008 9.54667 70.6008 10.12C70.6008 10.7067 70.7075 11.22 70.9208 11.66C71.1475 12.0867 71.4675 12.42 71.8808 12.66C72.2941 12.8867 72.7741 13 73.3208 13C73.8141 13 74.2608 12.92 74.6608 12.76C75.0608 12.5867 75.4075 12.3333 75.7008 12L77.2408 13.54C76.7741 14.0867 76.2008 14.5 75.5208 14.78C74.8541 15.06 74.1275 15.2 73.3408 15.2ZM81.8073 15V0.539999H84.4273V15H81.8073ZM85.9288 15V5.34H88.5688V15H85.9288ZM87.2488 3.78C86.8221 3.78 86.4688 3.64 86.1888 3.36C85.9088 3.06667 85.7688 2.70667 85.7688 2.28C85.7688 1.86667 85.9088 1.51333 86.1888 1.22C86.4688 0.926666 86.8221 0.779999 87.2488 0.779999C87.6888 0.779999 88.0421 0.926666 88.3088 1.22C88.5888 1.51333 88.7288 1.86667 88.7288 2.28C88.7288 2.70667 88.5888 3.06667 88.3088 3.36C88.0421 3.64 87.6888 3.78 87.2488 3.78ZM91.3497 15V4.3C91.3497 3.52667 91.5164 2.84667 91.8497 2.26C92.183 1.66 92.6564 1.18667 93.2697 0.84C93.883 0.493333 94.603 0.319999 95.4297 0.319999C96.0564 0.319999 96.5964 0.426666 97.0497 0.639999C97.503 0.853333 97.9097 1.14667 98.2697 1.52L96.6097 3.2C96.463 3.05333 96.303 2.94 96.1297 2.86C95.9564 2.78 95.7364 2.74 95.4697 2.74C94.9897 2.74 94.6164 2.87333 94.3497 3.14C94.0964 3.39333 93.9697 3.76 93.9697 4.24V15H91.3497ZM89.1097 7.64V5.34H96.8297V7.64H89.1097ZM101.799 15.2C100.786 15.2 99.886 14.9867 99.0994 14.56C98.3127 14.12 97.686 13.52 97.2194 12.76C96.766 12 96.5394 11.1333 96.5394 10.16C96.5394 9.2 96.7594 8.34667 97.1994 7.6C97.6527 6.84 98.266 6.24 99.0394 5.8C99.8127 5.34667 100.673 5.12 101.619 5.12C102.553 5.12 103.373 5.33333 104.079 5.76C104.799 6.17333 105.359 6.74667 105.759 7.48C106.173 8.2 106.379 9.02 106.379 9.94C106.379 10.1133 106.366 10.2933 106.339 10.48C106.326 10.6533 106.293 10.8533 106.239 11.08L98.1194 11.1V9.14L105.019 9.12L103.959 9.94C103.933 9.36667 103.826 8.88667 103.639 8.5C103.466 8.11333 103.206 7.82 102.859 7.62C102.526 7.40667 102.113 7.3 101.619 7.3C101.099 7.3 100.646 7.42 100.259 7.66C99.8727 7.88667 99.5727 8.21333 99.3594 8.64C99.1594 9.05333 99.0594 9.54667 99.0594 10.12C99.0594 10.7067 99.166 11.22 99.3794 11.66C99.606 12.0867 99.926 12.42 100.339 12.66C100.753 12.8867 101.233 13 101.779 13C102.273 13 102.719 12.92 103.119 12.76C103.519 12.5867 103.866 12.3333 104.159 12L105.699 13.54C105.233 14.0867 104.659 14.5 103.979 14.78C103.313 15.06 102.586 15.2 101.799 15.2ZM110.266 15V5.34H112.906V15H110.266ZM111.586 3.78C111.159 3.78 110.806 3.64 110.526 3.36C110.246 3.06667 110.106 2.70667 110.106 2.28C110.106 1.86667 110.246 1.51333 110.526 1.22C110.806 0.926666 111.159 0.779999 111.586 0.779999C112.026 0.779999 112.379 0.926666 112.646 1.22C112.926 1.51333 113.066 1.86667 113.066 2.28C113.066 2.70667 112.926 3.06667 112.646 3.36C112.379 3.64 112.026 3.78 111.586 3.78ZM120.907 15V9.46C120.907 8.88667 120.727 8.42 120.367 8.06C120.007 7.7 119.54 7.52 118.967 7.52C118.594 7.52 118.26 7.6 117.967 7.76C117.674 7.92 117.44 8.14667 117.267 8.44C117.107 8.73333 117.027 9.07333 117.027 9.46L116.007 8.94C116.007 8.18 116.167 7.52 116.487 6.96C116.82 6.38667 117.274 5.94 117.847 5.62C118.434 5.3 119.094 5.14 119.827 5.14C120.534 5.14 121.167 5.32 121.727 5.68C122.287 6.02667 122.727 6.48667 123.047 7.06C123.367 7.62 123.527 8.22667 123.527 8.88V15H120.907ZM114.407 15V5.34H117.027V15H114.407ZM126.12 15V1.32H128.74V15H126.12ZM123.86 7.64V5.34H131V7.64H123.86ZM135.959 15.2C134.986 15.2 134.106 14.98 133.319 14.54C132.546 14.0867 131.926 13.48 131.459 12.72C131.006 11.9467 130.779 11.0867 130.779 10.14C130.779 9.19333 131.006 8.34667 131.459 7.6C131.913 6.84 132.533 6.24 133.319 5.8C134.106 5.34667 134.979 5.12 135.939 5.12C136.926 5.12 137.806 5.34667 138.579 5.8C139.366 6.24 139.986 6.84 140.439 7.6C140.893 8.34667 141.119 9.19333 141.119 10.14C141.119 11.0867 140.893 11.9467 140.439 12.72C139.986 13.48 139.366 14.0867 138.579 14.54C137.806 14.98 136.933 15.2 135.959 15.2ZM135.939 12.76C136.433 12.76 136.866 12.6533 137.239 12.44C137.626 12.2133 137.919 11.9067 138.119 11.52C138.333 11.12 138.439 10.6667 138.439 10.16C138.439 9.65333 138.333 9.20667 138.119 8.82C137.906 8.43333 137.613 8.13333 137.239 7.92C136.866 7.69333 136.433 7.58 135.939 7.58C135.459 7.58 135.033 7.69333 134.659 7.92C134.286 8.13333 133.993 8.43333 133.779 8.82C133.566 9.20667 133.459 9.65333 133.459 10.16C133.459 10.6667 133.566 11.12 133.779 11.52C133.993 11.9067 134.286 12.2133 134.659 12.44C135.033 12.6533 135.459 12.76 135.939 12.76ZM149.112 15.2C148.232 15.2 147.439 14.98 146.732 14.54C146.026 14.1 145.472 13.5 145.072 12.74C144.672 11.98 144.472 11.1267 144.472 10.18C144.472 9.22 144.672 8.36 145.072 7.6C145.472 6.84 146.026 6.24 146.732 5.8C147.439 5.36 148.232 5.14 149.112 5.14C149.806 5.14 150.426 5.28 150.972 5.56C151.519 5.84 151.952 6.23333 152.272 6.74C152.606 7.23333 152.786 7.79333 152.812 8.42V11.9C152.786 12.54 152.606 13.1067 152.272 13.6C151.952 14.0933 151.519 14.4867 150.972 14.78C150.426 15.06 149.806 15.2 149.112 15.2ZM149.592 12.78C150.326 12.78 150.919 12.54 151.372 12.06C151.826 11.5667 152.052 10.9333 152.052 10.16C152.052 9.65333 151.946 9.20667 151.732 8.82C151.532 8.42 151.246 8.11333 150.872 7.9C150.512 7.67333 150.086 7.56 149.592 7.56C149.112 7.56 148.686 7.67333 148.312 7.9C147.952 8.11333 147.666 8.42 147.452 8.82C147.252 9.20667 147.152 9.65333 147.152 10.16C147.152 10.68 147.252 11.14 147.452 11.54C147.666 11.9267 147.952 12.2333 148.312 12.46C148.686 12.6733 149.112 12.78 149.592 12.78ZM151.912 15V12.4L152.332 10.04L151.912 7.72V5.34H154.512V15H151.912ZM163.136 19.28C162.11 19.28 161.203 19.0933 160.416 18.72C159.63 18.36 159.003 17.8467 158.536 17.18L160.196 15.52C160.57 15.96 160.983 16.2933 161.436 16.52C161.903 16.76 162.463 16.88 163.116 16.88C163.93 16.88 164.57 16.6733 165.036 16.26C165.516 15.8467 165.756 15.2733 165.756 14.54V12.12L166.196 10L165.776 7.88V5.34H168.376V14.5C168.376 15.46 168.15 16.2933 167.696 17C167.256 17.72 166.643 18.28 165.856 18.68C165.07 19.08 164.163 19.28 163.136 19.28ZM163.016 14.74C162.15 14.74 161.37 14.5333 160.676 14.12C159.983 13.6933 159.436 13.1133 159.036 12.38C158.65 11.6467 158.456 10.8267 158.456 9.92C158.456 9.01333 158.65 8.2 159.036 7.48C159.436 6.76 159.983 6.19333 160.676 5.78C161.37 5.35333 162.15 5.14 163.016 5.14C163.736 5.14 164.37 5.28 164.916 5.56C165.476 5.84 165.916 6.22667 166.236 6.72C166.556 7.2 166.73 7.76667 166.756 8.42V11.46C166.73 12.1 166.55 12.6733 166.216 13.18C165.896 13.6733 165.456 14.06 164.896 14.34C164.35 14.6067 163.723 14.74 163.016 14.74ZM163.536 12.36C164.016 12.36 164.43 12.26 164.776 12.06C165.136 11.8467 165.416 11.56 165.616 11.2C165.816 10.8267 165.916 10.4067 165.916 9.94C165.916 9.46 165.816 9.04 165.616 8.68C165.416 8.32 165.136 8.04 164.776 7.84C164.43 7.62667 164.016 7.52 163.536 7.52C163.056 7.52 162.636 7.62667 162.276 7.84C161.916 8.04 161.636 8.32667 161.436 8.7C161.236 9.06 161.136 9.47333 161.136 9.94C161.136 10.3933 161.236 10.8067 161.436 11.18C161.636 11.54 161.916 11.8267 162.276 12.04C162.636 12.2533 163.056 12.36 163.536 12.36ZM173.898 15.2C173.018 15.2 172.225 14.98 171.518 14.54C170.812 14.1 170.258 13.5 169.858 12.74C169.458 11.98 169.258 11.1267 169.258 10.18C169.258 9.22 169.458 8.36 169.858 7.6C170.258 6.84 170.812 6.24 171.518 5.8C172.225 5.36 173.018 5.14 173.898 5.14C174.592 5.14 175.212 5.28 175.758 5.56C176.305 5.84 176.738 6.23333 177.058 6.74C177.392 7.23333 177.572 7.79333 177.598 8.42V11.9C177.572 12.54 177.392 13.1067 177.058 13.6C176.738 14.0933 176.305 14.4867 175.758 14.78C175.212 15.06 174.592 15.2 173.898 15.2ZM174.378 12.78C175.112 12.78 175.705 12.54 176.158 12.06C176.612 11.5667 176.838 10.9333 176.838 10.16C176.838 9.65333 176.732 9.20667 176.518 8.82C176.318 8.42 176.032 8.11333 175.658 7.9C175.298 7.67333 174.872 7.56 174.378 7.56C173.898 7.56 173.472 7.67333 173.098 7.9C172.738 8.11333 172.452 8.42 172.238 8.82C172.038 9.20667 171.938 9.65333 171.938 10.16C171.938 10.68 172.038 11.14 172.238 11.54C172.452 11.9267 172.738 12.2333 173.098 12.46C173.472 12.6733 173.898 12.78 174.378 12.78ZM176.698 15V12.4L177.118 10.04L176.698 7.72V5.34H179.298V15H176.698ZM180.796 15V5.34H183.416V15H180.796ZM187.096 15V9.3C187.096 8.74 186.916 8.30667 186.556 8C186.209 7.68 185.776 7.52 185.256 7.52C184.909 7.52 184.596 7.59333 184.316 7.74C184.036 7.87333 183.816 8.07333 183.656 8.34C183.496 8.60667 183.416 8.92667 183.416 9.3L182.396 8.8C182.396 8.05333 182.556 7.40667 182.876 6.86C183.209 6.31333 183.656 5.89333 184.216 5.6C184.776 5.29333 185.409 5.14 186.116 5.14C186.783 5.14 187.389 5.29333 187.936 5.6C188.483 5.89333 188.916 6.31333 189.236 6.86C189.556 7.39333 189.716 8.04 189.716 8.8V15H187.096ZM193.396 15V9.3C193.396 8.74 193.216 8.30667 192.856 8C192.509 7.68 192.076 7.52 191.556 7.52C191.223 7.52 190.909 7.59333 190.616 7.74C190.336 7.87333 190.116 8.07333 189.956 8.34C189.796 8.60667 189.716 8.92667 189.716 9.3L188.216 8.94C188.269 8.16667 188.476 7.5 188.836 6.94C189.196 6.36667 189.669 5.92667 190.256 5.62C190.843 5.3 191.496 5.14 192.216 5.14C192.936 5.14 193.583 5.29333 194.156 5.6C194.729 5.89333 195.183 6.32 195.516 6.88C195.849 7.44 196.016 8.10667 196.016 8.88V15H193.396ZM201.94 15.2C200.927 15.2 200.027 14.9867 199.24 14.56C198.453 14.12 197.827 13.52 197.36 12.76C196.907 12 196.68 11.1333 196.68 10.16C196.68 9.2 196.9 8.34667 197.34 7.6C197.793 6.84 198.407 6.24 199.18 5.8C199.953 5.34667 200.813 5.12 201.76 5.12C202.693 5.12 203.513 5.33333 204.22 5.76C204.94 6.17333 205.5 6.74667 205.9 7.48C206.313 8.2 206.52 9.02 206.52 9.94C206.52 10.1133 206.507 10.2933 206.48 10.48C206.467 10.6533 206.433 10.8533 206.38 11.08L198.26 11.1V9.14L205.16 9.12L204.1 9.94C204.073 9.36667 203.967 8.88667 203.78 8.5C203.607 8.11333 203.347 7.82 203 7.62C202.667 7.40667 202.253 7.3 201.76 7.3C201.24 7.3 200.787 7.42 200.4 7.66C200.013 7.88667 199.713 8.21333 199.5 8.64C199.3 9.05333 199.2 9.54667 199.2 10.12C199.2 10.7067 199.307 11.22 199.52 11.66C199.747 12.0867 200.067 12.42 200.48 12.66C200.893 12.8867 201.373 13 201.92 13C202.413 13 202.86 12.92 203.26 12.76C203.66 12.5867 204.007 12.3333 204.3 12L205.84 13.54C205.373 14.0867 204.8 14.5 204.12 14.78C203.453 15.06 202.727 15.2 201.94 15.2Z" fill="#CE8F44"/>
</svg>
