<svg width="172" height="85" viewBox="0 0 172 85" fill="none" xmlns="http://www.w3.org/2000/svg">
<path d="M144.357 8H133.244V50.0533H144.357V8Z" fill="#FF0101"/>
<path d="M23.3506 14.5325H18V62.7101H23.3506V68.8343H59.5701V62.7101H66.1555V38.6213H59.5701V32.9053H35.6982V43.929H55.0427V57.8107H29.1128V19.0237H55.0427V26.3728H66.1555V14.5325H59.5701V8H23.3506V14.5325Z" fill="#FF0101"/>
<path fill-rule="evenodd" clip-rule="evenodd" d="M76.0335 14.5325H81.3841V8H117.604V14.5325H123.366V62.7101H117.604V68.8343H81.3841V62.7101H76.0335V14.5325ZM87.1463 57.8107H112.253V19.0237H87.1463V57.8107Z" fill="#FF0101"/>
<path d="M133.244 57.8107H144.357V68.426H133.244V57.8107Z" fill="#FF0101"/>
<path d="M153 16.166H141.887V58.2193H153V16.166Z" fill="#00FFFF"/>
<path d="M31.9939 22.6986H26.6433V70.8761H31.9939V77.0003H68.2134V70.8761H74.7988V46.7873H68.2134V41.0713H44.3415V52.095H63.686V65.9767H37.7561V27.1897H63.686V34.5388H74.7988V22.6986H68.2134V16.166H31.9939V22.6986Z" fill="#00FFFF"/>
<path fill-rule="evenodd" clip-rule="evenodd" d="M84.6768 22.6986H90.0275V16.166H126.247V22.6986H132.009V70.8761H126.247V77.0003H90.0275V70.8761H84.6768V22.6986ZM95.7897 65.9767H120.896V27.1897H95.7897V65.9767Z" fill="#00FFFF"/>
<path d="M141.887 65.9767H153V76.5921H141.887V65.9767Z" fill="#00FFFF"/>
<path d="M149.296 11.6748H138.183V53.7281H149.296V11.6748Z" fill="#469FE0"/>
<path d="M28.2896 18.2073H22.939V66.3849H28.2896V72.5091H64.5091V66.3849H71.0945V42.2961H64.5091V36.5801H40.6371V47.6038H59.9816V61.4855H34.0518V22.6985H59.9816V30.0476H71.0945V18.2073H64.5091V11.6748H28.2896V18.2073Z" fill="#469FE0"/>
<path fill-rule="evenodd" clip-rule="evenodd" d="M80.9725 18.2073H86.3231V11.6748H122.543V18.2073H128.305V66.3849H122.543V72.5091H86.3231V66.3849H80.9725V18.2073ZM92.0853 61.4855H117.192V22.6985H92.0853V61.4855Z" fill="#469FE0"/>
<path d="M138.183 61.4855H149.296V72.1008H138.183V61.4855Z" fill="#469FE0"/>
</svg>
