<svg width="232" height="115" viewBox="0 0 232 115" fill="none" xmlns="http://www.w3.org/2000/svg">
<path d="M4.98789 22V8.24H7.72789V22H4.98789ZM0.507894 10.36V7.94H12.2079V10.36H0.507894ZM14.6237 22.2C13.7437 22.2 12.9503 21.98 12.2437 21.54C11.537 21.1 10.9837 20.5 10.5837 19.74C10.1837 18.98 9.98368 18.1267 9.98368 17.18C9.98368 16.22 10.1837 15.36 10.5837 14.6C10.9837 13.84 11.537 13.24 12.2437 12.8C12.9503 12.36 13.7437 12.14 14.6237 12.14C15.317 12.14 15.937 12.28 16.4837 12.56C17.0303 12.84 17.4637 13.2333 17.7837 13.74C18.117 14.2333 18.297 14.7933 18.3237 15.42V18.9C18.297 19.54 18.117 20.1067 17.7837 20.6C17.4637 21.0933 17.0303 21.4867 16.4837 21.78C15.937 22.06 15.317 22.2 14.6237 22.2ZM15.1037 19.78C15.837 19.78 16.4303 19.54 16.8837 19.06C17.337 18.5667 17.5637 17.9333 17.5637 17.16C17.5637 16.6533 17.457 16.2067 17.2437 15.82C17.0437 15.42 16.757 15.1133 16.3837 14.9C16.0237 14.6733 15.597 14.56 15.1037 14.56C14.6237 14.56 14.197 14.6733 13.8237 14.9C13.4637 15.1133 13.177 15.42 12.9637 15.82C12.7637 16.2067 12.6637 16.6533 12.6637 17.16C12.6637 17.68 12.7637 18.14 12.9637 18.54C13.177 18.9267 13.4637 19.2333 13.8237 19.46C14.197 19.6733 14.6237 19.78 15.1037 19.78ZM17.4237 22V19.4L17.8437 17.04L17.4237 14.72V12.34H20.0237V22H17.4237ZM26.8815 22.2C26.1882 22.2 25.5615 22.06 25.0015 21.78C24.4415 21.4867 23.9948 21.0933 23.6615 20.6C23.3282 20.1067 23.1482 19.54 23.1215 18.9V15.48C23.1482 14.84 23.3282 14.2733 23.6615 13.78C24.0082 13.2733 24.4548 12.8733 25.0015 12.58C25.5615 12.2867 26.1882 12.14 26.8815 12.14C27.7748 12.14 28.5748 12.36 29.2815 12.8C29.9882 13.24 30.5415 13.84 30.9415 14.6C31.3548 15.36 31.5615 16.22 31.5615 17.18C31.5615 18.1267 31.3548 18.98 30.9415 19.74C30.5415 20.5 29.9882 21.1 29.2815 21.54C28.5748 21.98 27.7748 22.2 26.8815 22.2ZM26.4215 19.78C26.9015 19.78 27.3282 19.6733 27.7015 19.46C28.0748 19.2333 28.3615 18.9267 28.5615 18.54C28.7748 18.14 28.8815 17.68 28.8815 17.16C28.8815 16.6533 28.7748 16.2067 28.5615 15.82C28.3615 15.42 28.0748 15.1133 27.7015 14.9C27.3282 14.6733 26.9015 14.56 26.4215 14.56C25.9548 14.56 25.5348 14.6733 25.1615 14.9C24.7882 15.1133 24.4948 15.42 24.2815 15.82C24.0815 16.2067 23.9815 16.6533 23.9815 17.16C23.9815 17.68 24.0815 18.14 24.2815 18.54C24.4948 18.9267 24.7815 19.2333 25.1415 19.46C25.5148 19.6733 25.9415 19.78 26.4215 19.78ZM21.5215 26.04V12.34H24.1415V14.88L23.7015 17.22L24.1215 19.56V26.04H21.5215ZM39.5856 22.2C38.7056 22.2 37.9122 21.98 37.2056 21.54C36.4989 21.1 35.9456 20.5 35.5456 19.74C35.1456 18.98 34.9456 18.1267 34.9456 17.18C34.9456 16.22 35.1456 15.36 35.5456 14.6C35.9456 13.84 36.4989 13.24 37.2056 12.8C37.9122 12.36 38.7056 12.14 39.5856 12.14C40.2789 12.14 40.8989 12.28 41.4456 12.56C41.9922 12.84 42.4256 13.2333 42.7456 13.74C43.0789 14.2333 43.2589 14.7933 43.2856 15.42V18.9C43.2589 19.54 43.0789 20.1067 42.7456 20.6C42.4256 21.0933 41.9922 21.4867 41.4456 21.78C40.8989 22.06 40.2789 22.2 39.5856 22.2ZM40.0656 19.78C40.7989 19.78 41.3922 19.54 41.8456 19.06C42.2989 18.5667 42.5256 17.9333 42.5256 17.16C42.5256 16.6533 42.4189 16.2067 42.2056 15.82C42.0056 15.42 41.7189 15.1133 41.3456 14.9C40.9856 14.6733 40.5589 14.56 40.0656 14.56C39.5856 14.56 39.1589 14.6733 38.7856 14.9C38.4256 15.1133 38.1389 15.42 37.9256 15.82C37.7256 16.2067 37.6256 16.6533 37.6256 17.16C37.6256 17.68 37.7256 18.14 37.9256 18.54C38.1389 18.9267 38.4256 19.2333 38.7856 19.46C39.1589 19.6733 39.5856 19.78 40.0656 19.78ZM42.3856 22V19.4L42.8056 17.04L42.3856 14.72V12.34H44.9856V22H42.3856ZM52.9834 22V16.46C52.9834 15.8867 52.8034 15.42 52.4434 15.06C52.0834 14.7 51.6167 14.52 51.0434 14.52C50.67 14.52 50.3367 14.6 50.0434 14.76C49.75 14.92 49.5167 15.1467 49.3434 15.44C49.1834 15.7333 49.1034 16.0733 49.1034 16.46L48.0834 15.94C48.0834 15.18 48.2434 14.52 48.5634 13.96C48.8967 13.3867 49.35 12.94 49.9234 12.62C50.51 12.3 51.17 12.14 51.9034 12.14C52.61 12.14 53.2434 12.32 53.8034 12.68C54.3634 13.0267 54.8034 13.4867 55.1234 14.06C55.4434 14.62 55.6034 15.2267 55.6034 15.88V22H52.9834ZM46.4834 22V12.34H49.1034V22H46.4834ZM60.9738 22.2C60.0805 22.2 59.2805 21.98 58.5738 21.54C57.8672 21.1 57.3072 20.5 56.8938 19.74C56.4938 18.98 56.2938 18.1267 56.2938 17.18C56.2938 16.22 56.4938 15.36 56.8938 14.6C57.3072 13.84 57.8605 13.24 58.5538 12.8C59.2605 12.36 60.0672 12.14 60.9738 12.14C61.6672 12.14 62.2872 12.28 62.8338 12.56C63.3938 12.84 63.8405 13.2333 64.1738 13.74C64.5205 14.2333 64.7072 14.7933 64.7338 15.42V18.86C64.7072 19.4867 64.5272 20.0533 64.1938 20.56C63.8605 21.0667 63.4138 21.4667 62.8538 21.76C62.2938 22.0533 61.6672 22.2 60.9738 22.2ZM61.4138 19.78C61.9072 19.78 62.3338 19.6733 62.6938 19.46C63.0672 19.2333 63.3538 18.9267 63.5538 18.54C63.7672 18.14 63.8738 17.68 63.8738 17.16C63.8738 16.6533 63.7672 16.2067 63.5538 15.82C63.3538 15.42 63.0672 15.1133 62.6938 14.9C62.3338 14.6733 61.9138 14.56 61.4338 14.56C60.9405 14.56 60.5072 14.6733 60.1338 14.9C59.7738 15.1267 59.4872 15.4333 59.2738 15.82C59.0738 16.2067 58.9738 16.6533 58.9738 17.16C58.9738 17.68 59.0738 18.14 59.2738 18.54C59.4872 18.9267 59.7805 19.2333 60.1538 19.46C60.5272 19.6733 60.9472 19.78 61.4138 19.78ZM66.3338 22H63.7338V19.4L64.1538 17.04L63.7138 14.72V7.54H66.3338V22ZM71.1979 22V7.94H73.9179V22H71.1979ZM73.1979 22V19.6H80.9779V22H73.1979ZM73.1979 15.98V13.66H80.2779V15.98H73.1979ZM73.1979 10.34V7.94H80.8779V10.34H73.1979ZM86.052 22.2C85.172 22.2 84.3786 21.98 83.672 21.54C82.9653 21.1 82.412 20.5 82.012 19.74C81.612 18.98 81.412 18.1267 81.412 17.18C81.412 16.22 81.612 15.36 82.012 14.6C82.412 13.84 82.9653 13.24 83.672 12.8C84.3786 12.36 85.172 12.14 86.052 12.14C86.7453 12.14 87.3653 12.28 87.912 12.56C88.4586 12.84 88.892 13.2333 89.212 13.74C89.5453 14.2333 89.7253 14.7933 89.752 15.42V18.9C89.7253 19.54 89.5453 20.1067 89.212 20.6C88.892 21.0933 88.4586 21.4867 87.912 21.78C87.3653 22.06 86.7453 22.2 86.052 22.2ZM86.532 19.78C87.2653 19.78 87.8586 19.54 88.312 19.06C88.7653 18.5667 88.992 17.9333 88.992 17.16C88.992 16.6533 88.8853 16.2067 88.672 15.82C88.472 15.42 88.1853 15.1133 87.812 14.9C87.452 14.6733 87.0253 14.56 86.532 14.56C86.052 14.56 85.6253 14.6733 85.252 14.9C84.892 15.1133 84.6053 15.42 84.392 15.82C84.192 16.2067 84.092 16.6533 84.092 17.16C84.092 17.68 84.192 18.14 84.392 18.54C84.6053 18.9267 84.892 19.2333 85.252 19.46C85.6253 19.6733 86.052 19.78 86.532 19.78ZM88.852 22V19.4L89.272 17.04L88.852 14.72V12.34H91.452V22H88.852ZM92.9498 22V12.34H95.5698V22H92.9498ZM95.5698 16.66L94.5498 15.98C94.6698 14.7933 95.0164 13.86 95.5898 13.18C96.1631 12.4867 96.9898 12.14 98.0698 12.14C98.5364 12.14 98.9564 12.22 99.3298 12.38C99.7031 12.5267 100.043 12.7733 100.35 13.12L98.7098 15C98.5631 14.84 98.3831 14.72 98.1698 14.64C97.9698 14.56 97.7364 14.52 97.4698 14.52C96.9098 14.52 96.4498 14.7 96.0898 15.06C95.7431 15.4067 95.5698 15.94 95.5698 16.66ZM106.911 22V16.46C106.911 15.8867 106.731 15.42 106.371 15.06C106.011 14.7 105.544 14.52 104.971 14.52C104.598 14.52 104.264 14.6 103.971 14.76C103.678 14.92 103.444 15.1467 103.271 15.44C103.111 15.7333 103.031 16.0733 103.031 16.46L102.011 15.94C102.011 15.18 102.171 14.52 102.491 13.96C102.824 13.3867 103.278 12.94 103.851 12.62C104.438 12.3 105.098 12.14 105.831 12.14C106.538 12.14 107.171 12.32 107.731 12.68C108.291 13.0267 108.731 13.4867 109.051 14.06C109.371 14.62 109.531 15.2267 109.531 15.88V22H106.911ZM100.411 22V12.34H103.031V22H100.411ZM117.228 22.22C116.681 22.22 116.141 22.1467 115.608 22C115.088 21.8533 114.608 21.6533 114.168 21.4C113.728 21.1333 113.348 20.8133 113.028 20.44L114.588 18.86C114.921 19.2333 115.308 19.5133 115.748 19.7C116.188 19.8867 116.674 19.98 117.208 19.98C117.634 19.98 117.954 19.92 118.168 19.8C118.394 19.68 118.508 19.5 118.508 19.26C118.508 18.9933 118.388 18.7867 118.148 18.64C117.921 18.4933 117.621 18.3733 117.248 18.28C116.874 18.1733 116.481 18.06 116.068 17.94C115.668 17.8067 115.281 17.64 114.908 17.44C114.534 17.2267 114.228 16.94 113.988 16.58C113.761 16.2067 113.648 15.7267 113.648 15.14C113.648 14.5267 113.794 13.9933 114.088 13.54C114.394 13.0867 114.828 12.7333 115.388 12.48C115.948 12.2267 116.608 12.1 117.368 12.1C118.168 12.1 118.888 12.24 119.528 12.52C120.181 12.8 120.721 13.22 121.148 13.78L119.568 15.36C119.274 15 118.941 14.74 118.568 14.58C118.208 14.42 117.814 14.34 117.388 14.34C117.001 14.34 116.701 14.4 116.488 14.52C116.288 14.64 116.188 14.8067 116.188 15.02C116.188 15.26 116.301 15.4467 116.528 15.58C116.768 15.7133 117.074 15.8333 117.448 15.94C117.821 16.0333 118.208 16.1467 118.608 16.28C119.021 16.4 119.408 16.5733 119.768 16.8C120.141 17.0267 120.441 17.3267 120.668 17.7C120.908 18.0733 121.028 18.5533 121.028 19.14C121.028 20.0867 120.688 20.84 120.008 21.4C119.328 21.9467 118.401 22.22 117.228 22.22ZM128.474 22V16.46C128.474 15.8867 128.294 15.42 127.934 15.06C127.574 14.7 127.108 14.52 126.534 14.52C126.161 14.52 125.828 14.6 125.534 14.76C125.241 14.92 125.008 15.1467 124.834 15.44C124.674 15.7333 124.594 16.0733 124.594 16.46L123.574 15.94C123.574 15.18 123.734 14.52 124.054 13.96C124.374 13.3867 124.814 12.94 125.374 12.62C125.948 12.3 126.601 12.14 127.334 12.14C128.068 12.14 128.714 12.3 129.274 12.62C129.848 12.94 130.294 13.38 130.614 13.94C130.934 14.5 131.094 15.1467 131.094 15.88V22H128.474ZM121.974 22V7.54H124.594V22H121.974ZM136.425 22.2C135.545 22.2 134.752 21.98 134.045 21.54C133.338 21.1 132.785 20.5 132.385 19.74C131.985 18.98 131.785 18.1267 131.785 17.18C131.785 16.22 131.985 15.36 132.385 14.6C132.785 13.84 133.338 13.24 134.045 12.8C134.752 12.36 135.545 12.14 136.425 12.14C137.118 12.14 137.738 12.28 138.285 12.56C138.832 12.84 139.265 13.2333 139.585 13.74C139.918 14.2333 140.098 14.7933 140.125 15.42V18.9C140.098 19.54 139.918 20.1067 139.585 20.6C139.265 21.0933 138.832 21.4867 138.285 21.78C137.738 22.06 137.118 22.2 136.425 22.2ZM136.905 19.78C137.638 19.78 138.232 19.54 138.685 19.06C139.138 18.5667 139.365 17.9333 139.365 17.16C139.365 16.6533 139.258 16.2067 139.045 15.82C138.845 15.42 138.558 15.1133 138.185 14.9C137.825 14.6733 137.398 14.56 136.905 14.56C136.425 14.56 135.998 14.6733 135.625 14.9C135.265 15.1133 134.978 15.42 134.765 15.82C134.565 16.2067 134.465 16.6533 134.465 17.16C134.465 17.68 134.565 18.14 134.765 18.54C134.978 18.9267 135.265 19.2333 135.625 19.46C135.998 19.6733 136.425 19.78 136.905 19.78ZM139.225 22V19.4L139.645 17.04L139.225 14.72V12.34H141.825V22H139.225ZM143.323 22V12.34H145.943V22H143.323ZM145.943 16.66L144.923 15.98C145.043 14.7933 145.389 13.86 145.963 13.18C146.536 12.4867 147.363 12.14 148.443 12.14C148.909 12.14 149.329 12.22 149.703 12.38C150.076 12.5267 150.416 12.7733 150.723 13.12L149.083 15C148.936 14.84 148.756 14.72 148.543 14.64C148.343 14.56 148.109 14.52 147.843 14.52C147.283 14.52 146.823 14.7 146.463 15.06C146.116 15.4067 145.943 15.94 145.943 16.66ZM155.17 22.2C154.156 22.2 153.256 21.9867 152.47 21.56C151.683 21.12 151.056 20.52 150.59 19.76C150.136 19 149.91 18.1333 149.91 17.16C149.91 16.2 150.13 15.3467 150.57 14.6C151.023 13.84 151.636 13.24 152.41 12.8C153.183 12.3467 154.043 12.12 154.99 12.12C155.923 12.12 156.743 12.3333 157.45 12.76C158.17 13.1733 158.73 13.7467 159.13 14.48C159.543 15.2 159.75 16.02 159.75 16.94C159.75 17.1133 159.736 17.2933 159.71 17.48C159.696 17.6533 159.663 17.8533 159.61 18.08L151.49 18.1V16.14L158.39 16.12L157.33 16.94C157.303 16.3667 157.196 15.8867 157.01 15.5C156.836 15.1133 156.576 14.82 156.23 14.62C155.896 14.4067 155.483 14.3 154.99 14.3C154.47 14.3 154.016 14.42 153.63 14.66C153.243 14.8867 152.943 15.2133 152.73 15.64C152.53 16.0533 152.43 16.5467 152.43 17.12C152.43 17.7067 152.536 18.22 152.75 18.66C152.976 19.0867 153.296 19.42 153.71 19.66C154.123 19.8867 154.603 20 155.15 20C155.643 20 156.09 19.92 156.49 19.76C156.89 19.5867 157.236 19.3333 157.53 19L159.07 20.54C158.603 21.0867 158.03 21.5 157.35 21.78C156.683 22.06 155.956 22.2 155.17 22.2ZM163.87 22.22C163.323 22.22 162.783 22.1467 162.25 22C161.73 21.8533 161.25 21.6533 160.81 21.4C160.37 21.1333 159.99 20.8133 159.67 20.44L161.23 18.86C161.563 19.2333 161.95 19.5133 162.39 19.7C162.83 19.8867 163.317 19.98 163.85 19.98C164.277 19.98 164.597 19.92 164.81 19.8C165.037 19.68 165.15 19.5 165.15 19.26C165.15 18.9933 165.03 18.7867 164.79 18.64C164.563 18.4933 164.263 18.3733 163.89 18.28C163.517 18.1733 163.123 18.06 162.71 17.94C162.31 17.8067 161.923 17.64 161.55 17.44C161.177 17.2267 160.87 16.94 160.63 16.58C160.403 16.2067 160.29 15.7267 160.29 15.14C160.29 14.5267 160.437 13.9933 160.73 13.54C161.037 13.0867 161.47 12.7333 162.03 12.48C162.59 12.2267 163.25 12.1 164.01 12.1C164.81 12.1 165.53 12.24 166.17 12.52C166.823 12.8 167.363 13.22 167.79 13.78L166.21 15.36C165.917 15 165.583 14.74 165.21 14.58C164.85 14.42 164.457 14.34 164.03 14.34C163.643 14.34 163.343 14.4 163.13 14.52C162.93 14.64 162.83 14.8067 162.83 15.02C162.83 15.26 162.943 15.4467 163.17 15.58C163.41 15.7133 163.717 15.8333 164.09 15.94C164.463 16.0333 164.85 16.1467 165.25 16.28C165.663 16.4 166.05 16.5733 166.41 16.8C166.783 17.0267 167.083 17.3267 167.31 17.7C167.55 18.0733 167.67 18.5533 167.67 19.14C167.67 20.0867 167.33 20.84 166.65 21.4C165.97 21.9467 165.043 22.22 163.87 22.22ZM171.703 22V12.34H174.343V22H171.703ZM173.023 10.78C172.596 10.78 172.243 10.64 171.963 10.36C171.683 10.0667 171.543 9.70667 171.543 9.28C171.543 8.86667 171.683 8.51333 171.963 8.22C172.243 7.92667 172.596 7.78 173.023 7.78C173.463 7.78 173.816 7.92667 174.083 8.22C174.363 8.51333 174.503 8.86667 174.503 9.28C174.503 9.70667 174.363 10.0667 174.083 10.36C173.816 10.64 173.463 10.78 173.023 10.78ZM182.344 22V16.46C182.344 15.8867 182.164 15.42 181.804 15.06C181.444 14.7 180.977 14.52 180.404 14.52C180.031 14.52 179.697 14.6 179.404 14.76C179.111 14.92 178.877 15.1467 178.704 15.44C178.544 15.7333 178.464 16.0733 178.464 16.46L177.444 15.94C177.444 15.18 177.604 14.52 177.924 13.96C178.257 13.3867 178.711 12.94 179.284 12.62C179.871 12.3 180.531 12.14 181.264 12.14C181.971 12.14 182.604 12.32 183.164 12.68C183.724 13.0267 184.164 13.4867 184.484 14.06C184.804 14.62 184.964 15.2267 184.964 15.88V22H182.344ZM175.844 22V12.34H178.464V22H175.844ZM193.421 22.2C192.527 22.2 191.727 21.98 191.021 21.54C190.314 21.1 189.754 20.5 189.341 19.74C188.941 18.98 188.741 18.1267 188.741 17.18C188.741 16.22 188.941 15.36 189.341 14.6C189.754 13.84 190.307 13.24 191.001 12.8C191.707 12.36 192.514 12.14 193.421 12.14C194.114 12.14 194.734 12.28 195.281 12.56C195.841 12.84 196.287 13.2333 196.621 13.74C196.967 14.2333 197.154 14.7933 197.181 15.42V18.86C197.154 19.4867 196.974 20.0533 196.641 20.56C196.307 21.0667 195.861 21.4667 195.301 21.76C194.741 22.0533 194.114 22.2 193.421 22.2ZM193.861 19.78C194.354 19.78 194.781 19.6733 195.141 19.46C195.514 19.2333 195.801 18.9267 196.001 18.54C196.214 18.14 196.321 17.68 196.321 17.16C196.321 16.6533 196.214 16.2067 196.001 15.82C195.801 15.42 195.514 15.1133 195.141 14.9C194.781 14.6733 194.361 14.56 193.881 14.56C193.387 14.56 192.954 14.6733 192.581 14.9C192.221 15.1267 191.934 15.4333 191.721 15.82C191.521 16.2067 191.421 16.6533 191.421 17.16C191.421 17.68 191.521 18.14 191.721 18.54C191.934 18.9267 192.227 19.2333 192.601 19.46C192.974 19.6733 193.394 19.78 193.861 19.78ZM198.781 22H196.181V19.4L196.601 17.04L196.161 14.72V7.54H198.781V22ZM204.318 22.2C203.438 22.2 202.645 21.98 201.938 21.54C201.232 21.1 200.678 20.5 200.278 19.74C199.878 18.98 199.678 18.1267 199.678 17.18C199.678 16.22 199.878 15.36 200.278 14.6C200.678 13.84 201.232 13.24 201.938 12.8C202.645 12.36 203.438 12.14 204.318 12.14C205.012 12.14 205.632 12.28 206.178 12.56C206.725 12.84 207.158 13.2333 207.478 13.74C207.812 14.2333 207.992 14.7933 208.018 15.42V18.9C207.992 19.54 207.812 20.1067 207.478 20.6C207.158 21.0933 206.725 21.4867 206.178 21.78C205.632 22.06 205.012 22.2 204.318 22.2ZM204.798 19.78C205.532 19.78 206.125 19.54 206.578 19.06C207.032 18.5667 207.258 17.9333 207.258 17.16C207.258 16.6533 207.152 16.2067 206.938 15.82C206.738 15.42 206.452 15.1133 206.078 14.9C205.718 14.6733 205.292 14.56 204.798 14.56C204.318 14.56 203.892 14.6733 203.518 14.9C203.158 15.1133 202.872 15.42 202.658 15.82C202.458 16.2067 202.358 16.6533 202.358 17.16C202.358 17.68 202.458 18.14 202.658 18.54C202.872 18.9267 203.158 19.2333 203.518 19.46C203.892 19.6733 204.318 19.78 204.798 19.78ZM207.118 22V19.4L207.538 17.04L207.118 14.72V12.34H209.718V22H207.118ZM211.216 22V12.34H213.856V22H211.216ZM212.536 10.78C212.11 10.78 211.756 10.64 211.476 10.36C211.196 10.0667 211.056 9.70667 211.056 9.28C211.056 8.86667 211.196 8.51333 211.476 8.22C211.756 7.92667 212.11 7.78 212.536 7.78C212.976 7.78 213.33 7.92667 213.596 8.22C213.876 8.51333 214.016 8.86667 214.016 9.28C214.016 9.70667 213.876 10.0667 213.596 10.36C213.33 10.64 212.976 10.78 212.536 10.78ZM215.357 22V7.54H217.977V22H215.357ZM222.519 22.08L218.479 12.34H221.319L223.999 19.78H223.039L225.819 12.34H228.679L224.379 22.06L222.519 22.08ZM219.839 26.04L222.779 19.82L224.379 22.06L222.619 26.04H219.839ZM40.8751 52.2C39.9951 52.2 39.2017 51.98 38.4951 51.54C37.7884 51.1 37.2351 50.5 36.8351 49.74C36.4351 48.98 36.2351 48.1267 36.2351 47.18C36.2351 46.22 36.4351 45.36 36.8351 44.6C37.2351 43.84 37.7884 43.24 38.4951 42.8C39.2017 42.36 39.9951 42.14 40.8751 42.14C41.5684 42.14 42.1884 42.28 42.7351 42.56C43.2817 42.84 43.7151 43.2333 44.0351 43.74C44.3684 44.2333 44.5484 44.7933 44.5751 45.42V48.9C44.5484 49.54 44.3684 50.1067 44.0351 50.6C43.7151 51.0933 43.2817 51.4867 42.7351 51.78C42.1884 52.06 41.5684 52.2 40.8751 52.2ZM41.3551 49.78C42.0884 49.78 42.6817 49.54 43.1351 49.06C43.5884 48.5667 43.8151 47.9333 43.8151 47.16C43.8151 46.6533 43.7084 46.2067 43.4951 45.82C43.2951 45.42 43.0084 45.1133 42.6351 44.9C42.2751 44.6733 41.8484 44.56 41.3551 44.56C40.8751 44.56 40.4484 44.6733 40.0751 44.9C39.7151 45.1133 39.4284 45.42 39.2151 45.82C39.0151 46.2067 38.9151 46.6533 38.9151 47.16C38.9151 47.68 39.0151 48.14 39.2151 48.54C39.4284 48.9267 39.7151 49.2333 40.0751 49.46C40.4484 49.6733 40.8751 49.78 41.3551 49.78ZM43.6751 56.04V49.56L44.0951 47.22L43.6751 44.88V42.34H46.2751V56.04H43.6751ZM51.8929 52.2C51.0396 52.2 50.2796 52.02 49.6129 51.66C48.9596 51.3 48.4462 50.8 48.0729 50.16C47.6996 49.52 47.5129 48.78 47.5129 47.94V42.34H50.1529V47.88C50.1529 48.28 50.2196 48.6267 50.3529 48.92C50.4862 49.2 50.6862 49.4133 50.9529 49.56C51.2196 49.7067 51.5329 49.78 51.8929 49.78C52.4396 49.78 52.8662 49.6133 53.1729 49.28C53.4796 48.9467 53.6329 48.48 53.6329 47.88V42.34H56.2529V47.94C56.2529 48.7933 56.0662 49.54 55.6929 50.18C55.3329 50.82 54.8196 51.32 54.1529 51.68C53.4996 52.0267 52.7462 52.2 51.8929 52.2ZM62.1393 52.2C61.126 52.2 60.226 51.9867 59.4393 51.56C58.6526 51.12 58.026 50.52 57.5593 49.76C57.106 49 56.8793 48.1333 56.8793 47.16C56.8793 46.2 57.0993 45.3467 57.5393 44.6C57.9926 43.84 58.606 43.24 59.3793 42.8C60.1526 42.3467 61.0126 42.12 61.9593 42.12C62.8926 42.12 63.7126 42.3333 64.4193 42.76C65.1393 43.1733 65.6993 43.7467 66.0993 44.48C66.5126 45.2 66.7193 46.02 66.7193 46.94C66.7193 47.1133 66.706 47.2933 66.6793 47.48C66.666 47.6533 66.6326 47.8533 66.5793 48.08L58.4593 48.1V46.14L65.3593 46.12L64.2993 46.94C64.2726 46.3667 64.166 45.8867 63.9793 45.5C63.806 45.1133 63.546 44.82 63.1993 44.62C62.866 44.4067 62.4526 44.3 61.9593 44.3C61.4393 44.3 60.986 44.42 60.5993 44.66C60.2126 44.8867 59.9126 45.2133 59.6993 45.64C59.4993 46.0533 59.3993 46.5467 59.3993 47.12C59.3993 47.7067 59.506 48.22 59.7193 48.66C59.946 49.0867 60.266 49.42 60.6793 49.66C61.0926 49.8867 61.5726 50 62.1193 50C62.6126 50 63.0593 49.92 63.4593 49.76C63.8593 49.5867 64.206 49.3333 64.4993 49L66.0393 50.54C65.5726 51.0867 64.9993 51.5 64.3193 51.78C63.6526 52.06 62.926 52.2 62.1393 52.2ZM70.8396 52.22C70.2929 52.22 69.7529 52.1467 69.2196 52C68.6996 51.8533 68.2196 51.6533 67.7796 51.4C67.3396 51.1333 66.9596 50.8133 66.6396 50.44L68.1996 48.86C68.5329 49.2333 68.9196 49.5133 69.3596 49.7C69.7996 49.8867 70.2863 49.98 70.8196 49.98C71.2463 49.98 71.5663 49.92 71.7796 49.8C72.0063 49.68 72.1196 49.5 72.1196 49.26C72.1196 48.9933 71.9996 48.7867 71.7596 48.64C71.5329 48.4933 71.2329 48.3733 70.8596 48.28C70.4863 48.1733 70.0929 48.06 69.6796 47.94C69.2796 47.8067 68.8929 47.64 68.5196 47.44C68.1463 47.2267 67.8396 46.94 67.5996 46.58C67.3729 46.2067 67.2596 45.7267 67.2596 45.14C67.2596 44.5267 67.4063 43.9933 67.6996 43.54C68.0063 43.0867 68.4396 42.7333 68.9996 42.48C69.5596 42.2267 70.2196 42.1 70.9796 42.1C71.7796 42.1 72.4996 42.24 73.1396 42.52C73.7929 42.8 74.3329 43.22 74.7596 43.78L73.1796 45.36C72.8863 45 72.5529 44.74 72.1796 44.58C71.8196 44.42 71.4263 44.34 70.9996 44.34C70.6129 44.34 70.3129 44.4 70.0996 44.52C69.8996 44.64 69.7996 44.8067 69.7996 45.02C69.7996 45.26 69.9129 45.4467 70.1396 45.58C70.3796 45.7133 70.6863 45.8333 71.0596 45.94C71.4329 46.0333 71.8196 46.1467 72.2196 46.28C72.6329 46.4 73.0196 46.5733 73.3796 46.8C73.7529 47.0267 74.0529 47.3267 74.2796 47.7C74.5196 48.0733 74.6396 48.5533 74.6396 49.14C74.6396 50.0867 74.2996 50.84 73.6196 51.4C72.9396 51.9467 72.0129 52.22 70.8396 52.22ZM77.0063 52V38.32H79.6263V52H77.0063ZM74.7463 44.64V42.34H81.8863V44.64H74.7463ZM85.6645 52.22C85.1178 52.22 84.5778 52.1467 84.0445 52C83.5245 51.8533 83.0445 51.6533 82.6045 51.4C82.1645 51.1333 81.7845 50.8133 81.4645 50.44L83.0245 48.86C83.3578 49.2333 83.7445 49.5133 84.1845 49.7C84.6245 49.8867 85.1111 49.98 85.6445 49.98C86.0711 49.98 86.3911 49.92 86.6045 49.8C86.8311 49.68 86.9445 49.5 86.9445 49.26C86.9445 48.9933 86.8245 48.7867 86.5845 48.64C86.3578 48.4933 86.0578 48.3733 85.6845 48.28C85.3111 48.1733 84.9178 48.06 84.5045 47.94C84.1045 47.8067 83.7178 47.64 83.3445 47.44C82.9711 47.2267 82.6645 46.94 82.4245 46.58C82.1978 46.2067 82.0845 45.7267 82.0845 45.14C82.0845 44.5267 82.2311 43.9933 82.5245 43.54C82.8311 43.0867 83.2645 42.7333 83.8245 42.48C84.3845 42.2267 85.0445 42.1 85.8045 42.1C86.6045 42.1 87.3245 42.24 87.9645 42.52C88.6178 42.8 89.1578 43.22 89.5845 43.78L88.0045 45.36C87.7111 45 87.3778 44.74 87.0045 44.58C86.6445 44.42 86.2511 44.34 85.8245 44.34C85.4378 44.34 85.1378 44.4 84.9245 44.52C84.7245 44.64 84.6245 44.8067 84.6245 45.02C84.6245 45.26 84.7378 45.4467 84.9645 45.58C85.2045 45.7133 85.5111 45.8333 85.8845 45.94C86.2578 46.0333 86.6445 46.1467 87.0445 46.28C87.4578 46.4 87.8445 46.5733 88.2045 46.8C88.5778 47.0267 88.8778 47.3267 89.1045 47.7C89.3445 48.0733 89.4645 48.5533 89.4645 49.14C89.4645 50.0867 89.1245 50.84 88.4445 51.4C87.7645 51.9467 86.8378 52.22 85.6645 52.22ZM97.5374 52.2C96.6574 52.2 95.8641 51.98 95.1574 51.54C94.4508 51.1 93.8974 50.5 93.4974 49.74C93.0974 48.98 92.8974 48.1267 92.8974 47.18C92.8974 46.22 93.0974 45.36 93.4974 44.6C93.8974 43.84 94.4508 43.24 95.1574 42.8C95.8641 42.36 96.6574 42.14 97.5374 42.14C98.2308 42.14 98.8508 42.28 99.3974 42.56C99.9441 42.84 100.377 43.2333 100.697 43.74C101.031 44.2333 101.211 44.7933 101.237 45.42V48.9C101.211 49.54 101.031 50.1067 100.697 50.6C100.377 51.0933 99.9441 51.4867 99.3974 51.78C98.8508 52.06 98.2308 52.2 97.5374 52.2ZM98.0174 49.78C98.7508 49.78 99.3441 49.54 99.7974 49.06C100.251 48.5667 100.477 47.9333 100.477 47.16C100.477 46.6533 100.371 46.2067 100.157 45.82C99.9574 45.42 99.6708 45.1133 99.2974 44.9C98.9374 44.6733 98.5108 44.56 98.0174 44.56C97.5374 44.56 97.1108 44.6733 96.7374 44.9C96.3774 45.1133 96.0908 45.42 95.8774 45.82C95.6774 46.2067 95.5774 46.6533 95.5774 47.16C95.5774 47.68 95.6774 48.14 95.8774 48.54C96.0908 48.9267 96.3774 49.2333 96.7374 49.46C97.1108 49.6733 97.5374 49.78 98.0174 49.78ZM100.337 52V49.4L100.757 47.04L100.337 44.72V42.34H102.937V52H100.337ZM110.935 52V46.46C110.935 45.8867 110.755 45.42 110.395 45.06C110.035 44.7 109.569 44.52 108.995 44.52C108.622 44.52 108.289 44.6 107.995 44.76C107.702 44.92 107.469 45.1467 107.295 45.44C107.135 45.7333 107.055 46.0733 107.055 46.46L106.035 45.94C106.035 45.18 106.195 44.52 106.515 43.96C106.849 43.3867 107.302 42.94 107.875 42.62C108.462 42.3 109.122 42.14 109.855 42.14C110.562 42.14 111.195 42.32 111.755 42.68C112.315 43.0267 112.755 43.4867 113.075 44.06C113.395 44.62 113.555 45.2267 113.555 45.88V52H110.935ZM104.435 52V42.34H107.055V52H104.435ZM118.926 52.2C118.032 52.2 117.232 51.98 116.526 51.54C115.819 51.1 115.259 50.5 114.846 49.74C114.446 48.98 114.246 48.1267 114.246 47.18C114.246 46.22 114.446 45.36 114.846 44.6C115.259 43.84 115.812 43.24 116.506 42.8C117.212 42.36 118.019 42.14 118.926 42.14C119.619 42.14 120.239 42.28 120.786 42.56C121.346 42.84 121.792 43.2333 122.126 43.74C122.472 44.2333 122.659 44.7933 122.686 45.42V48.86C122.659 49.4867 122.479 50.0533 122.146 50.56C121.812 51.0667 121.366 51.4667 120.806 51.76C120.246 52.0533 119.619 52.2 118.926 52.2ZM119.366 49.78C119.859 49.78 120.286 49.6733 120.646 49.46C121.019 49.2333 121.306 48.9267 121.506 48.54C121.719 48.14 121.826 47.68 121.826 47.16C121.826 46.6533 121.719 46.2067 121.506 45.82C121.306 45.42 121.019 45.1133 120.646 44.9C120.286 44.6733 119.866 44.56 119.386 44.56C118.892 44.56 118.459 44.6733 118.086 44.9C117.726 45.1267 117.439 45.4333 117.226 45.82C117.026 46.2067 116.926 46.6533 116.926 47.16C116.926 47.68 117.026 48.14 117.226 48.54C117.439 48.9267 117.732 49.2333 118.106 49.46C118.479 49.6733 118.899 49.78 119.366 49.78ZM124.286 52H121.686V49.4L122.106 47.04L121.666 44.72V37.54H124.286V52ZM134.23 52.2C133.536 52.2 132.91 52.0533 132.35 51.76C131.79 51.4667 131.343 51.0667 131.01 50.56C130.676 50.0533 130.496 49.4867 130.47 48.86V45.42C130.496 44.7933 130.676 44.2333 131.01 43.74C131.356 43.2333 131.81 42.84 132.37 42.56C132.93 42.28 133.55 42.14 134.23 42.14C135.123 42.14 135.923 42.36 136.63 42.8C137.336 43.24 137.89 43.84 138.29 44.6C138.703 45.36 138.91 46.22 138.91 47.18C138.91 48.1267 138.703 48.98 138.29 49.74C137.89 50.5 137.336 51.1 136.63 51.54C135.923 51.98 135.123 52.2 134.23 52.2ZM133.79 49.78C134.27 49.78 134.69 49.6733 135.05 49.46C135.423 49.2333 135.71 48.9267 135.91 48.54C136.123 48.14 136.23 47.68 136.23 47.16C136.23 46.6533 136.123 46.2067 135.91 45.82C135.71 45.42 135.423 45.1133 135.05 44.9C134.676 44.6733 134.25 44.56 133.77 44.56C133.29 44.56 132.863 44.6733 132.49 44.9C132.13 45.1133 131.843 45.42 131.63 45.82C131.43 46.2067 131.33 46.6533 131.33 47.16C131.33 47.68 131.43 48.14 131.63 48.54C131.843 48.9267 132.136 49.2333 132.51 49.46C132.883 49.6733 133.31 49.78 133.79 49.78ZM128.87 52V37.54H131.49V44.72L131.05 47.04L131.47 49.4V52H128.87ZM144.348 52.2C143.374 52.2 142.494 51.98 141.708 51.54C140.934 51.0867 140.314 50.48 139.848 49.72C139.394 48.9467 139.168 48.0867 139.168 47.14C139.168 46.1933 139.394 45.3467 139.848 44.6C140.301 43.84 140.921 43.24 141.708 42.8C142.494 42.3467 143.368 42.12 144.328 42.12C145.314 42.12 146.194 42.3467 146.968 42.8C147.754 43.24 148.374 43.84 148.828 44.6C149.281 45.3467 149.508 46.1933 149.508 47.14C149.508 48.0867 149.281 48.9467 148.828 49.72C148.374 50.48 147.754 51.0867 146.968 51.54C146.194 51.98 145.321 52.2 144.348 52.2ZM144.328 49.76C144.821 49.76 145.254 49.6533 145.628 49.44C146.014 49.2133 146.308 48.9067 146.508 48.52C146.721 48.12 146.828 47.6667 146.828 47.16C146.828 46.6533 146.721 46.2067 146.508 45.82C146.294 45.4333 146.001 45.1333 145.628 44.92C145.254 44.6933 144.821 44.58 144.328 44.58C143.848 44.58 143.421 44.6933 143.048 44.92C142.674 45.1333 142.381 45.4333 142.168 45.82C141.954 46.2067 141.848 46.6533 141.848 47.16C141.848 47.6667 141.954 48.12 142.168 48.52C142.381 48.9067 142.674 49.2133 143.048 49.44C143.421 49.6533 143.848 49.76 144.328 49.76ZM156.874 52V46.46C156.874 45.8867 156.694 45.42 156.334 45.06C155.974 44.7 155.508 44.52 154.934 44.52C154.561 44.52 154.228 44.6 153.934 44.76C153.641 44.92 153.408 45.1467 153.234 45.44C153.074 45.7333 152.994 46.0733 152.994 46.46L151.974 45.94C151.974 45.18 152.134 44.52 152.454 43.96C152.788 43.3867 153.241 42.94 153.814 42.62C154.401 42.3 155.061 42.14 155.794 42.14C156.501 42.14 157.134 42.32 157.694 42.68C158.254 43.0267 158.694 43.4867 159.014 44.06C159.334 44.62 159.494 45.2267 159.494 45.88V52H156.874ZM150.374 52V42.34H152.994V52H150.374ZM164.905 52.2C164.051 52.2 163.291 52.02 162.625 51.66C161.971 51.3 161.458 50.8 161.085 50.16C160.711 49.52 160.525 48.78 160.525 47.94V42.34H163.165V47.88C163.165 48.28 163.231 48.6267 163.365 48.92C163.498 49.2 163.698 49.4133 163.965 49.56C164.231 49.7067 164.545 49.78 164.905 49.78C165.451 49.78 165.878 49.6133 166.185 49.28C166.491 48.9467 166.645 48.48 166.645 47.88V42.34H169.265V47.94C169.265 48.7933 169.078 49.54 168.705 50.18C168.345 50.82 167.831 51.32 167.165 51.68C166.511 52.0267 165.758 52.2 164.905 52.2ZM173.851 52.22C173.305 52.22 172.765 52.1467 172.231 52C171.711 51.8533 171.231 51.6533 170.791 51.4C170.351 51.1333 169.971 50.8133 169.651 50.44L171.211 48.86C171.545 49.2333 171.931 49.5133 172.371 49.7C172.811 49.8867 173.298 49.98 173.831 49.98C174.258 49.98 174.578 49.92 174.791 49.8C175.018 49.68 175.131 49.5 175.131 49.26C175.131 48.9933 175.011 48.7867 174.771 48.64C174.545 48.4933 174.245 48.3733 173.871 48.28C173.498 48.1733 173.105 48.06 172.691 47.94C172.291 47.8067 171.905 47.64 171.531 47.44C171.158 47.2267 170.851 46.94 170.611 46.58C170.385 46.2067 170.271 45.7267 170.271 45.14C170.271 44.5267 170.418 43.9933 170.711 43.54C171.018 43.0867 171.451 42.7333 172.011 42.48C172.571 42.2267 173.231 42.1 173.991 42.1C174.791 42.1 175.511 42.24 176.151 42.52C176.805 42.8 177.345 43.22 177.771 43.78L176.191 45.36C175.898 45 175.565 44.74 175.191 44.58C174.831 44.42 174.438 44.34 174.011 44.34C173.625 44.34 173.325 44.4 173.111 44.52C172.911 44.64 172.811 44.8067 172.811 45.02C172.811 45.26 172.925 45.4467 173.151 45.58C173.391 45.7133 173.698 45.8333 174.071 45.94C174.445 46.0333 174.831 46.1467 175.231 46.28C175.645 46.4 176.031 46.5733 176.391 46.8C176.765 47.0267 177.065 47.3267 177.291 47.7C177.531 48.0733 177.651 48.5533 177.651 49.14C177.651 50.0867 177.311 50.84 176.631 51.4C175.951 51.9467 175.025 52.22 173.851 52.22ZM183.218 52.2C182.205 52.2 181.305 51.9867 180.518 51.56C179.731 51.12 179.105 50.52 178.638 49.76C178.185 49 177.958 48.1333 177.958 47.16C177.958 46.2 178.178 45.3467 178.618 44.6C179.071 43.84 179.685 43.24 180.458 42.8C181.231 42.3467 182.091 42.12 183.038 42.12C183.971 42.12 184.791 42.3333 185.498 42.76C186.218 43.1733 186.778 43.7467 187.178 44.48C187.591 45.2 187.798 46.02 187.798 46.94C187.798 47.1133 187.785 47.2933 187.758 47.48C187.745 47.6533 187.711 47.8533 187.658 48.08L179.538 48.1V46.14L186.438 46.12L185.378 46.94C185.351 46.3667 185.245 45.8867 185.058 45.5C184.885 45.1133 184.625 44.82 184.278 44.62C183.945 44.4067 183.531 44.3 183.038 44.3C182.518 44.3 182.065 44.42 181.678 44.66C181.291 44.8867 180.991 45.2133 180.778 45.64C180.578 46.0533 180.478 46.5467 180.478 47.12C180.478 47.7067 180.585 48.22 180.798 48.66C181.025 49.0867 181.345 49.42 181.758 49.66C182.171 49.8867 182.651 50 183.198 50C183.691 50 184.138 49.92 184.538 49.76C184.938 49.5867 185.285 49.3333 185.578 49L187.118 50.54C186.651 51.0867 186.078 51.5 185.398 51.78C184.731 52.06 184.005 52.2 183.218 52.2ZM191.918 52.22C191.372 52.22 190.832 52.1467 190.298 52C189.778 51.8533 189.298 51.6533 188.858 51.4C188.418 51.1333 188.038 50.8133 187.718 50.44L189.278 48.86C189.612 49.2333 189.998 49.5133 190.438 49.7C190.878 49.8867 191.365 49.98 191.898 49.98C192.325 49.98 192.645 49.92 192.858 49.8C193.085 49.68 193.198 49.5 193.198 49.26C193.198 48.9933 193.078 48.7867 192.838 48.64C192.612 48.4933 192.312 48.3733 191.938 48.28C191.565 48.1733 191.172 48.06 190.758 47.94C190.358 47.8067 189.972 47.64 189.598 47.44C189.225 47.2267 188.918 46.94 188.678 46.58C188.452 46.2067 188.338 45.7267 188.338 45.14C188.338 44.5267 188.485 43.9933 188.778 43.54C189.085 43.0867 189.518 42.7333 190.078 42.48C190.638 42.2267 191.298 42.1 192.058 42.1C192.858 42.1 193.578 42.24 194.218 42.52C194.872 42.8 195.412 43.22 195.838 43.78L194.258 45.36C193.965 45 193.632 44.74 193.258 44.58C192.898 44.42 192.505 44.34 192.078 44.34C191.692 44.34 191.392 44.4 191.178 44.52C190.978 44.64 190.878 44.8067 190.878 45.02C190.878 45.26 190.992 45.4467 191.218 45.58C191.458 45.7133 191.765 45.8333 192.138 45.94C192.512 46.0333 192.898 46.1467 193.298 46.28C193.712 46.4 194.098 46.5733 194.458 46.8C194.832 47.0267 195.132 47.3267 195.358 47.7C195.598 48.0733 195.718 48.5533 195.718 49.14C195.718 50.0867 195.378 50.84 194.698 51.4C194.018 51.9467 193.092 52.22 191.918 52.22Z" fill="white"/>
<g clip-path="url(#clip0_1348_3405)">
<path fill-rule="evenodd" clip-rule="evenodd" d="M134 97C134 106.941 125.941 115 116 115C106.059 115 98 106.941 98 97C98 87.0589 106.059 79 116 79C125.941 79 134 87.0589 134 97ZM116.645 92.2884C114.894 93.0166 111.395 94.5238 106.148 96.81C105.296 97.1488 104.849 97.4803 104.809 97.8045C104.74 98.3522 105.426 98.5679 106.36 98.8617C106.487 98.9016 106.619 98.943 106.754 98.9869C107.673 99.2857 108.909 99.6352 109.552 99.649C110.135 99.6616 110.786 99.4213 111.504 98.928C116.407 95.6185 118.938 93.9457 119.096 93.9097C119.209 93.8842 119.364 93.8522 119.469 93.9458C119.574 94.0393 119.564 94.2165 119.553 94.264C119.485 94.5537 116.792 97.0571 115.399 98.3527C114.964 98.7565 114.656 99.043 114.593 99.1085C114.452 99.255 114.308 99.3937 114.17 99.5269C113.316 100.35 112.676 100.967 114.205 101.975C114.94 102.46 115.529 102.86 116.115 103.26C116.756 103.696 117.395 104.131 118.222 104.673C118.433 104.812 118.634 104.955 118.83 105.095C119.576 105.626 120.246 106.104 121.074 106.028C121.555 105.984 122.052 105.531 122.304 104.183C122.9 100.995 124.072 94.0877 124.343 91.2415C124.367 90.9921 124.337 90.673 124.313 90.5329C124.289 90.3928 124.239 90.1932 124.057 90.0454C123.841 89.8704 123.508 89.8335 123.36 89.8361C122.683 89.8481 121.644 90.2092 116.645 92.2884Z" fill="white"/>
</g>
<path d="M57.4894 81.856H62.5496L51.4946 94.4912L64.5 111.685H54.3169L46.3411 101.257L37.2149 111.685H32.1516L43.9762 98.1701L31.5 81.856H41.9417L49.1511 91.3875L57.4894 81.856ZM55.7135 108.656H58.5174L40.4181 84.7257H37.4092L55.7135 108.656Z" fill="white"/>
<g clip-path="url(#clip1_1348_3405)">
<path d="M196.475 85.2336C194.181 84.1808 191.72 83.4051 189.148 82.9608C189.101 82.9523 189.054 82.9737 189.03 83.0166C188.713 83.5794 188.363 84.3136 188.118 84.8907C185.35 84.4765 182.598 84.4765 179.887 84.8907C179.642 84.3008 179.279 83.5794 178.961 83.0166C178.937 82.9751 178.89 82.9537 178.843 82.9608C176.272 83.4037 173.811 84.1794 171.515 85.2336C171.495 85.2422 171.478 85.2565 171.467 85.275C166.8 92.2476 165.521 99.0487 166.149 105.766C166.151 105.798 166.17 105.83 166.195 105.85C169.275 108.111 172.257 109.484 175.185 110.394C175.232 110.408 175.281 110.391 175.311 110.352C176.004 109.407 176.621 108.41 177.15 107.361C177.181 107.3 177.152 107.227 177.088 107.203C176.109 106.831 175.176 106.378 174.279 105.864C174.209 105.823 174.203 105.721 174.268 105.673C174.457 105.531 174.646 105.384 174.826 105.236C174.858 105.208 174.904 105.203 174.942 105.22C180.834 107.91 187.212 107.91 193.034 105.22C193.073 105.201 193.118 105.207 193.152 105.234C193.332 105.383 193.521 105.531 193.711 105.673C193.776 105.721 193.772 105.823 193.701 105.864C192.804 106.388 191.872 106.831 190.892 107.201C190.828 107.225 190.799 107.3 190.831 107.361C191.371 108.408 191.989 109.405 192.668 110.351C192.697 110.391 192.748 110.408 192.795 110.394C195.736 109.484 198.719 108.111 201.798 105.85C201.825 105.83 201.842 105.8 201.845 105.767C202.595 98.0016 200.588 91.2562 196.522 85.2764C196.512 85.2565 196.495 85.2422 196.475 85.2336ZM178.03 101.676C176.256 101.676 174.795 100.047 174.795 98.0473C174.795 96.0474 176.228 94.4189 178.03 94.4189C179.846 94.4189 181.294 96.0617 181.265 98.0473C181.265 100.047 179.832 101.676 178.03 101.676ZM189.992 101.676C188.218 101.676 186.757 100.047 186.757 98.0473C186.757 96.0474 188.19 94.4189 189.992 94.4189C191.808 94.4189 193.256 96.0617 193.227 98.0473C193.227 100.047 191.808 101.676 189.992 101.676Z" fill="white"/>
</g>
<defs>
<clipPath id="clip0_1348_3405">
<rect width="36" height="36" fill="white" transform="translate(98 79)"/>
</clipPath>
<clipPath id="clip1_1348_3405">
<rect width="36" height="36" fill="white" transform="translate(166 79)"/>
</clipPath>
</defs>
</svg>
